{
	"asset":{
		"copyright":"FakeYou, Scott Heron",
		"generator":"Khronos glTF Blender I/O v3.6.27",
		"version":"2.0"
	},
	"extensionsUsed":[
		"KHR_materials_specular",
		"KHR_materials_ior",
		"KHR_materials_emissive_strength"
	],
	"scene":0,
	"scenes":[
		{
			"name":"Scene",
			"nodes":[
				177
			]
		}
	],
	"nodes":[
		{
			"name":"DEF-chin.001",
			"rotation":[
				-0.373304545879364,
				2.4110888632855598e-11,
				-8.898742009932903e-08,
				0.9277088642120361
			],
			"translation":[
				1.2492651769828444e-14,
				0.011358318850398064,
				1.6763806343078613e-08
			]
		},
		{
			"children":[
				0
			],
			"name":"DEF-chin",
			"rotation":[
				-0.47348228096961975,
				1.0497358005068236e-07,
				-5.6435570883195396e-08,
				0.8808033466339111
			],
			"translation":[
				3.705769144237564e-21,
				0.08556775003671646,
				-9.872019290924072e-08
			]
		},
		{
			"name":"DEF-chin.L",
			"rotation":[
				-0.5096519589424133,
				0.0014398465864360332,
				0.35058629512786865,
				0.7857112288475037
			],
			"scale":[
				0.9999999403953552,
				1,
				1
			],
			"translation":[
				6.58910721540451e-08,
				0.05650896951556206,
				3.725290298461914e-08
			]
		},
		{
			"children":[
				2
			],
			"name":"DEF-jaw.L.001",
			"rotation":[
				-0.2675604820251465,
				0.006253933068364859,
				0.1240292638540268,
				0.9555045962333679
			],
			"scale":[
				0.9999999403953552,
				0.9999999403953552,
				0.9999998807907104
			],
			"translation":[
				3.7180143408477306e-08,
				0.03121572732925415,
				1.5832483768463135e-08
			]
		},
		{
			"children":[
				3
			],
			"name":"DEF-jaw.L",
			"rotation":[
				0.273115336894989,
				-0.1264720857143402,
				0.15486498177051544,
				0.9409727454185486
			],
			"scale":[
				1,
				0.9999999403953552,
				1
			],
			"translation":[
				0.06403475254774094,
				0.0026362575590610504,
				-0.009529296308755875
			]
		},
		{
			"name":"DEF-lip.B.L.001",
			"rotation":[
				0.10290487110614777,
				0.1489259898662567,
				0.20177043974399567,
				0.9625592827796936
			],
			"scale":[
				1,
				1.0000001192092896,
				1.0000001192092896
			],
			"translation":[
				2.153683453798294e-09,
				0.007911774329841137,
				-1.8684659153223038e-08
			]
		},
		{
			"children":[
				5
			],
			"name":"DEF-lip.B.L",
			"rotation":[
				0.7265493273735046,
				0.6348766684532166,
				-0.18977801501750946,
				0.1817745566368103
			],
			"scale":[
				1,
				0.9999998807907104,
				1
			],
			"translation":[
				-6.6589549874152e-08,
				0.08601640164852142,
				-0.040568865835666656
			]
		},
		{
			"name":"DEF-chin.R",
			"rotation":[
				-0.5096519589424133,
				-0.0014398465864360332,
				-0.35058629512786865,
				0.7857112288475037
			],
			"scale":[
				0.9999999403953552,
				1,
				1
			],
			"translation":[
				-6.58910721540451e-08,
				0.05650896951556206,
				3.725290298461914e-08
			]
		},
		{
			"children":[
				7
			],
			"name":"DEF-jaw.R.001",
			"rotation":[
				-0.2675604820251465,
				-0.006253933068364859,
				-0.1240292638540268,
				0.9555045962333679
			],
			"scale":[
				0.9999999403953552,
				0.9999999403953552,
				0.9999998807907104
			],
			"translation":[
				-3.7180143408477306e-08,
				0.03121572732925415,
				1.5832483768463135e-08
			]
		},
		{
			"children":[
				8
			],
			"name":"DEF-jaw.R",
			"rotation":[
				0.273115336894989,
				0.1264720857143402,
				-0.15486498177051544,
				0.9409727454185486
			],
			"scale":[
				1,
				0.9999999403953552,
				1
			],
			"translation":[
				-0.06403475254774094,
				0.0026362575590610504,
				-0.009529296308755875
			]
		},
		{
			"name":"DEF-lip.B.R.001",
			"rotation":[
				0.10290487110614777,
				-0.1489260047674179,
				-0.20177042484283447,
				0.9625592827796936
			],
			"scale":[
				1.0000001192092896,
				1.0000001192092896,
				1.0000001192092896
			],
			"translation":[
				-2.0954757928848267e-09,
				0.007911775261163712,
				-1.8684659153223038e-08
			]
		},
		{
			"children":[
				10
			],
			"name":"DEF-lip.B.R",
			"rotation":[
				0.7265493273735046,
				-0.6348766684532166,
				0.18977801501750946,
				0.1817745566368103
			],
			"scale":[
				1,
				0.9999998807907104,
				1
			],
			"translation":[
				6.658957829586143e-08,
				0.08601640164852142,
				-0.040568865835666656
			]
		},
		{
			"name":"DEF-teeth.B",
			"rotation":[
				0.9572778940200806,
				-8.99767100967985e-15,
				7.892987749936325e-14,
				0.2891694903373718
			],
			"scale":[
				1,
				1,
				0.9999994039535522
			],
			"translation":[
				1.1733580653047661e-14,
				0.08264715224504471,
				-0.040336254984140396
			]
		},
		{
			"name":"DEF-tongue.002",
			"rotation":[
				-0.21408581733703613,
				1.7663357620078743e-14,
				4.96174349978902e-14,
				0.976814866065979
			],
			"scale":[
				1,
				0.9999999403953552,
				1
			],
			"translation":[
				3.1763735522036263e-22,
				0.016080085188150406,
				-3.484819899313152e-08
			]
		},
		{
			"children":[
				13
			],
			"name":"DEF-tongue.001",
			"rotation":[
				-0.015285800211131573,
				1.4713553099287907e-15,
				8.187040319773339e-14,
				0.9998831748962402
			],
			"translation":[
				4.0190759181455274e-24,
				0.011837165802717209,
				-1.228763721883297e-07
			]
		},
		{
			"children":[
				14
			],
			"name":"DEF-tongue",
			"rotation":[
				0.9621950387954712,
				-7.614025749681005e-15,
				7.907536387838365e-14,
				0.2723613679409027
			],
			"scale":[
				1,
				1,
				1.0000003576278687
			],
			"translation":[
				1.100753958604506e-14,
				0.07718372344970703,
				-0.034698236733675
			]
		},
		{
			"name":"DEF-jaw",
			"rotation":[
				-0.1543629765510559,
				-7.941664361722778e-14,
				1.9755768710120938e-15,
				0.9880142211914062
			],
			"scale":[
				1,
				1.0000001192092896,
				1
			],
			"translation":[
				4.465873217697524e-15,
				0.044941969215869904,
				0.013011864386498928
			]
		},
		{
			"children":[
				1,
				4,
				6,
				9,
				11,
				12,
				15,
				16
			],
			"name":"DEF-jaw_master",
			"rotation":[
				0.8828619122505188,
				5.675498826462899e-08,
				-1.0547830697760219e-07,
				0.46963268518447876
			],
			"scale":[
				1,
				0.9999998807907104,
				0.9999996423721313
			],
			"translation":[
				9.134167033852947e-11,
				0.003973525948822498,
				-0.00038133468478918076
			]
		},
		{
			"name":"DEF-temple.L",
			"rotation":[
				-0.995866596698761,
				0.08974827826023102,
				0.0051206424832344055,
				0.012993581593036652
			],
			"scale":[
				1.0000017881393433,
				1.0000001192092896,
				1
			],
			"translation":[
				0.07864127308130264,
				0.09071110934019089,
				0.009168646298348904
			]
		},
		{
			"name":"DEF-ear.L.004",
			"rotation":[
				-0.7273547053337097,
				-0.02129371091723442,
				-0.4720402956008911,
				0.49767422676086426
			],
			"scale":[
				0.9999999403953552,
				1.000000238418579,
				1
			],
			"translation":[
				1.4901161193847656e-08,
				0.04250289872288704,
				-1.2665987014770508e-07
			]
		},
		{
			"children":[
				19
			],
			"name":"DEF-ear.L.003",
			"rotation":[
				-0.3647390604019165,
				0.017414912581443787,
				-0.2099304348230362,
				0.9069682359695435
			],
			"scale":[
				1,
				1.0000001192092896,
				1
			],
			"translation":[
				7.450580596923828e-09,
				0.03325943648815155,
				-2.9802322387695312e-08
			]
		},
		{
			"children":[
				20
			],
			"name":"DEF-ear.L.002",
			"rotation":[
				-0.7671190500259399,
				-0.0037849436048418283,
				-0.16618940234184265,
				0.6195927262306213
			],
			"scale":[
				1,
				0.9999999403953552,
				0.9999999403953552
			],
			"translation":[
				-2.9802322387695312e-08,
				0.02745906263589859,
				-2.60770320892334e-08
			]
		},
		{
			"children":[
				21
			],
			"name":"DEF-ear.L.001",
			"rotation":[
				-0.45944008231163025,
				1.7783818861971668e-08,
				-0.2946677505970001,
				0.8379055857658386
			],
			"scale":[
				1,
				0.9999999403953552,
				1
			],
			"translation":[
				5.587935447692871e-09,
				0.03731780871748924,
				1.1175870895385742e-08
			]
		},
		{
			"children":[
				22
			],
			"name":"DEF-ear.L",
			"rotation":[
				-0.10000487416982651,
				-0.09617334604263306,
				-0.020871993154287338,
				0.9901081323623657
			],
			"scale":[
				0.9999998807907104,
				1.0000001192092896,
				1
			],
			"translation":[
				0.07005278766155243,
				0.01939990371465683,
				0.0008066147565841675
			]
		},
		{
			"name":"DEF-brow.T.L.003",
			"rotation":[
				0.30993568897247314,
				-0.07383155077695847,
				0.021816270425915718,
				0.9476353526115417
			],
			"scale":[
				1,
				0.9999999403953552,
				1
			],
			"translation":[
				-1.7462298274040222e-08,
				0.03464391455054283,
				1.4493707567453384e-08
			]
		},
		{
			"children":[
				24
			],
			"name":"DEF-brow.T.L.002",
			"rotation":[
				0.17897582054138184,
				-0.026860054582357407,
				0.19166716933250427,
				0.9646294116973877
			],
			"translation":[
				-5.587935447692871e-09,
				0.028780633583664894,
				-3.550667315721512e-09
			]
		},
		{
			"children":[
				25
			],
			"name":"DEF-brow.T.L.001",
			"rotation":[
				0.3477003276348114,
				0.05304247885942459,
				0.17328378558158875,
				0.9199259281158447
			],
			"scale":[
				1.0000001192092896,
				1,
				0.9999999403953552
			],
			"translation":[
				2.7939677238464355e-09,
				0.0286850705742836,
				-4.889443516731262e-08
			]
		},
		{
			"children":[
				26
			],
			"name":"DEF-brow.T.L",
			"rotation":[
				0.41329941153526306,
				-0.33601999282836914,
				-0.07825317978858948,
				0.8427043557167053
			],
			"scale":[
				1,
				1.0000001192092896,
				1
			],
			"translation":[
				0.06819093972444534,
				0.049919575452804565,
				0.0405266098678112
			]
		},
		{
			"name":"DEF-nose.004",
			"rotation":[
				-0.5054112076759338,
				0.0072203511372208595,
				-0.0082579106092453,
				0.8628089427947998
			],
			"scale":[
				0.9999999403953552,
				0.9999999403953552,
				0.9999998807907104
			],
			"translation":[
				6.76613265415682e-10,
				0.0041246116161346436,
				-8.009460827906878e-08
			]
		},
		{
			"children":[
				28
			],
			"name":"DEF-nose.003",
			"rotation":[
				0.11090988665819168,
				-0.004361027851700783,
				0.016361581161618233,
				0.9936861991882324
			],
			"scale":[
				1,
				0.9999998807907104,
				0.9999998807907104
			],
			"translation":[
				7.34871719032526e-10,
				0.007767777889966965,
				-6.75896956181532e-08
			]
		},
		{
			"children":[
				29
			],
			"name":"DEF-nose.002",
			"rotation":[
				0.6800727844238281,
				0.005192302167415619,
				-0.0029969229362905025,
				0.7331200838088989
			],
			"scale":[
				0.9999999403953552,
				1,
				1
			],
			"translation":[
				4.777532536248685e-13,
				0.0396382138133049,
				-2.2351741790771484e-08
			]
		},
		{
			"children":[
				30
			],
			"name":"DEF-nose.001",
			"rotation":[
				-0.3312312364578247,
				-5.505608768885395e-08,
				-1.5431758129125228e-06,
				0.9435495734214783
			],
			"translation":[
				-1.4210854715202004e-14,
				0.015377012081444263,
				-7.450580596923828e-09
			]
		},
		{
			"name":"DEF-nose.L.001",
			"rotation":[
				0.5083521604537964,
				0.08307594805955887,
				-0.3377607762813568,
				0.7877779603004456
			],
			"scale":[
				1,
				0.9999999403953552,
				1
			],
			"translation":[
				-3.213062882423401e-08,
				0.02148408815264702,
				3.4924596548080444e-09
			]
		},
		{
			"children":[
				32
			],
			"name":"DEF-nose.L",
			"rotation":[
				-0.07906237989664078,
				-0.9543666243553162,
				0.2833925783634186,
				0.051207005977630615
			],
			"scale":[
				1,
				1.0000001192092896,
				1
			],
			"translation":[
				0.008661121129989624,
				0.02979639172554016,
				-0.0009087257203646004
			]
		},
		{
			"name":"DEF-nose.R.001",
			"rotation":[
				0.5083521604537964,
				-0.08307598531246185,
				0.3377607762813568,
				0.7877779603004456
			],
			"scale":[
				1.0000001192092896,
				1,
				1
			],
			"translation":[
				1.792795956134796e-08,
				0.021484194323420525,
				-5.948822945356369e-08
			]
		},
		{
			"children":[
				34
			],
			"name":"DEF-nose.R",
			"rotation":[
				-0.07905373722314835,
				0.9543681144714355,
				-0.2833923399448395,
				0.05119362846016884
			],
			"scale":[
				1,
				1.0000003576278687,
				1
			],
			"translation":[
				-0.00866079330444336,
				0.029796602204442024,
				-0.0009085453930310905
			]
		},
		{
			"children":[
				31,
				33,
				35
			],
			"name":"DEF-nose",
			"rotation":[
				-0.9969503879547119,
				5.64064475838677e-06,
				5.7817910601443145e-06,
				0.07803784310817719
			],
			"scale":[
				1,
				1,
				0.9999974966049194
			],
			"translation":[
				2.0816889900743263e-07,
				0.05893427133560181,
				0.09093746542930603
			]
		},
		{
			"name":"DEF-lip.T.L.001",
			"rotation":[
				-0.06451556831598282,
				-0.09235625714063644,
				0.1534060388803482,
				0.9817202687263489
			],
			"scale":[
				1,
				0.9999999403953552,
				1
			],
			"translation":[
				-5.122274160385132e-09,
				0.008267136290669441,
				-8.277129381895065e-08
			]
		},
		{
			"children":[
				37
			],
			"name":"DEF-lip.T.L",
			"rotation":[
				-0.5564270615577698,
				-0.3919072151184082,
				-0.4831634759902954,
				0.5507729053497314
			],
			"scale":[
				0.9999997615814209,
				0.9999999403953552,
				0.9999999403953552
			],
			"translation":[
				2.3013582151065748e-08,
				-0.003572422545403242,
				0.09526994824409485
			]
		},
		{
			"name":"DEF-cheek.B.L.001",
			"rotation":[
				0.38255685567855835,
				0.0011723217321559787,
				0.2272683084011078,
				0.8955433964729309
			],
			"scale":[
				0.9999999403953552,
				0.9999998807907104,
				0.9999998807907104
			],
			"translation":[
				3.259629011154175e-08,
				0.03895487263798714,
				-5.657784640789032e-08
			]
		},
		{
			"children":[
				39
			],
			"name":"DEF-cheek.B.L",
			"rotation":[
				-0.5277402400970459,
				-0.3236018121242523,
				-0.3807888627052307,
				0.6868566274642944
			],
			"scale":[
				1,
				0.9999999403953552,
				1.0000001192092896
			],
			"translation":[
				0.01694054715335369,
				-0.006507571320980787,
				0.08782973885536194
			]
		},
		{
			"name":"DEF-cheek.T.L.001",
			"rotation":[
				0.35669323801994324,
				0.012691658921539783,
				0.3242287039756775,
				0.8760619759559631
			],
			"scale":[
				0.9999998211860657,
				0.9999998807907104,
				0.9999997615814209
			],
			"translation":[
				1.0244548320770264e-07,
				0.056252941489219666,
				3.725290298461914e-08
			]
		},
		{
			"children":[
				41
			],
			"name":"DEF-cheek.T.L",
			"rotation":[
				0.771223783493042,
				-0.4488247334957123,
				-0.38868430256843567,
				0.22955310344696045
			],
			"scale":[
				1.0000001192092896,
				1.000000238418579,
				1.0000001192092896
			],
			"translation":[
				0.06819093972444534,
				0.049919575452804565,
				0.0405266098678112
			]
		},
		{
			"name":"DEF-brow.B.L.004",
			"rotation":[
				0.03510059416294098,
				0.17471688985824585,
				0.17077970504760742,
				0.9690594673156738
			],
			"scale":[
				1,
				1.0000001192092896,
				0.9999999403953552
			],
			"translation":[
				-9.499490261077881e-08,
				0.015931330621242523,
				1.862645149230957e-08
			]
		},
		{
			"children":[
				43
			],
			"name":"DEF-brow.B.L.003",
			"rotation":[
				-0.27924394607543945,
				0.03041338548064232,
				0.28387022018432617,
				0.9167963862419128
			],
			"scale":[
				0.9999999403953552,
				0.9999999403953552,
				0.9999999403953552
			],
			"translation":[
				8.89413058757782e-08,
				0.020569274201989174,
				4.6333298087120056e-08
			]
		},
		{
			"children":[
				44
			],
			"name":"DEF-brow.B.L.002",
			"rotation":[
				-0.22680115699768066,
				-0.04378123581409454,
				0.1306866705417633,
				0.9641397595405579
			],
			"scale":[
				1,
				1.0000001192092896,
				1
			],
			"translation":[
				8.847564458847046e-09,
				0.014719806611537933,
				-5.8673322200775146e-08
			]
		},
		{
			"children":[
				45
			],
			"name":"DEF-brow.B.L.001",
			"rotation":[
				-0.24787355959415436,
				-0.04041747376322746,
				0.0836917832493782,
				0.9643239974975586
			],
			"translation":[
				7.729977369308472e-08,
				0.007082564756274223,
				-6.658956408500671e-08
			]
		},
		{
			"children":[
				46
			],
			"name":"DEF-brow.B.L",
			"rotation":[
				0.008965468034148216,
				0.5914638638496399,
				0.432882159948349,
				0.6802228689193726
			],
			"scale":[
				1,
				0.9999998807907104,
				0.9999998807907104
			],
			"translation":[
				0.05546364188194275,
				0.05531930550932884,
				0.06690741330385208
			]
		},
		{
			"name":"DEF-eye_iris.L",
			"rotation":[
				-4.817266585632751e-07,
				0.0005235242424532771,
				-1.0151418194936923e-07,
				0.9999998807907104
			],
			"scale":[
				0.9999999403953552,
				1,
				0.9999999403953552
			],
			"translation":[
				6.955815479159355e-08,
				0.021570345386862755,
				2.1886080503463745e-08
			]
		},
		{
			"children":[
				48
			],
			"name":"DEF-eye.L",
			"rotation":[
				0.10656625032424927,
				0.07483313232660294,
				-0.02425895258784294,
				0.9911887645721436
			],
			"scale":[
				1,
				1,
				0.9999999403953552
			],
			"translation":[
				4.241701390128583e-08,
				6.693881005048752e-10,
				2.5538611225783825e-09
			]
		},
		{
			"name":"DEF-lid.T.L.003",
			"rotation":[
				0.3115357458591461,
				0.012449554167687893,
				-0.23614661395549774,
				0.9203397631645203
			],
			"scale":[
				0.9999998807907104,
				1,
				1.0000001192092896
			],
			"translation":[
				1.2991949915885925e-07,
				0.01471785083413124,
				-2.7008354663848877e-08
			]
		},
		{
			"children":[
				50
			],
			"name":"DEF-lid.T.L.002",
			"rotation":[
				0.254520446062088,
				-0.004759075120091438,
				-0.14062151312828064,
				0.956777036190033
			],
			"scale":[
				0.9999999403953552,
				1,
				0.9999999403953552
			],
			"translation":[
				-2.0627339836210012e-08,
				0.013494190759956837,
				3.91155481338501e-08
			]
		},
		{
			"children":[
				51
			],
			"name":"DEF-lid.T.L.001",
			"rotation":[
				0.22910666465759277,
				-0.026912197470664978,
				-0.18887737393379211,
				0.9545214772224426
			],
			"scale":[
				0.9999998807907104,
				1.0000001192092896,
				1
			],
			"translation":[
				9.313225746154785e-09,
				0.01054951548576355,
				-1.30385160446167e-08
			]
		},
		{
			"children":[
				52
			],
			"name":"DEF-lid.T.L",
			"rotation":[
				0.3172757923603058,
				0.01530873216688633,
				0.42216482758522034,
				0.8490456938743591
			],
			"translation":[
				-0.0008171125082299113,
				0.00837379414588213,
				-0.02297910675406456
			]
		},
		{
			"name":"DEF-lid.B.L.003",
			"rotation":[
				0.2082974761724472,
				0.014063547365367413,
				-0.15907631814479828,
				0.9649399518966675
			],
			"scale":[
				1,
				1,
				1.0000001192092896
			],
			"translation":[
				-1.7229467630386353e-07,
				0.014186348766088486,
				-3.3527612686157227e-08
			]
		},
		{
			"children":[
				54
			],
			"name":"DEF-lid.B.L.002",
			"rotation":[
				0.30333903431892395,
				-0.001242131576873362,
				-0.08694884926080704,
				0.9489066004753113
			],
			"scale":[
				1,
				0.9999999403953552,
				1.0000001192092896
			],
			"translation":[
				-9.476207196712494e-08,
				0.01418091170489788,
				-9.313225746154785e-09
			]
		},
		{
			"children":[
				55
			],
			"name":"DEF-lid.B.L.001",
			"rotation":[
				0.2697157561779022,
				-0.008783182129263878,
				-0.20598997175693512,
				0.9406085014343262
			],
			"translation":[
				-1.2014061212539673e-07,
				0.010667923837900162,
				1.1175870895385742e-08
			]
		},
		{
			"children":[
				56
			],
			"name":"DEF-lid.B.L",
			"rotation":[
				0.4271756708621979,
				0.7741587162017822,
				-0.4661857783794403,
				0.029496653005480766
			],
			"scale":[
				1.0000001192092896,
				1.0000001192092896,
				1.0000001192092896
			],
			"translation":[
				0.004454467911273241,
				0.015960264950990677,
				0.016441678628325462
			]
		},
		{
			"children":[
				49,
				53,
				57
			],
			"name":"DEF-eye_master.L",
			"rotation":[
				0.5053142309188843,
				-0.5005149245262146,
				-0.49979233741760254,
				0.49431779980659485
			],
			"scale":[
				1,
				1,
				0.9999999403953552
			],
			"translation":[
				0.03130025789141655,
				0.04740063101053238,
				0.056089650839567184
			]
		},
		{
			"name":"DEF-forehead.L",
			"rotation":[
				0.714051365852356,
				-0.08240821957588196,
				0.695144772529602,
				0.010646305046975613
			],
			"scale":[
				0.9999989867210388,
				0.9999998807907104,
				0.9999994039535522
			],
			"translation":[
				0.01370270736515522,
				0.09485024213790894,
				0.09368627518415451
			]
		},
		{
			"name":"DEF-forehead.L.001",
			"rotation":[
				-0.8033657073974609,
				0.07077456265687943,
				-0.5912649035453796,
				0.0006396838580258191
			],
			"scale":[
				0.999998152256012,
				0.9999998211860657,
				0.999998927116394
			],
			"translation":[
				0.04569051042199135,
				0.0966540277004242,
				0.08325385302305222
			]
		},
		{
			"name":"DEF-forehead.L.002",
			"rotation":[
				0.9465318918228149,
				-0.013517905957996845,
				0.32210370898246765,
				0.011991987004876137
			],
			"scale":[
				1.0000003576278687,
				1.000000238418579,
				1.0000001192092896
			],
			"translation":[
				0.06497704982757568,
				0.09755849838256836,
				0.06160902604460716
			]
		},
		{
			"name":"DEF-temple.R",
			"rotation":[
				-0.995866596698761,
				-0.08974827826023102,
				-0.005120499525219202,
				0.012993614189326763
			],
			"scale":[
				1.0000020265579224,
				1,
				1
			],
			"translation":[
				-0.07864127308130264,
				0.09071110934019089,
				0.009168683551251888
			]
		},
		{
			"name":"DEF-ear.R.004",
			"rotation":[
				-0.7273547053337097,
				0.02129385434091091,
				0.4720403254032135,
				0.49767422676086426
			],
			"scale":[
				1.0000001192092896,
				1.000000238418579,
				1.000000238418579
			],
			"translation":[
				-1.1175870895385742e-08,
				0.04250279441475868,
				-1.210719347000122e-07
			]
		},
		{
			"children":[
				63
			],
			"name":"DEF-ear.R.003",
			"rotation":[
				-0.36473900079727173,
				-0.017414839938282967,
				0.20993047952651978,
				0.9069682359695435
			],
			"scale":[
				1.0000001192092896,
				1.0000001192092896,
				1
			],
			"translation":[
				-2.60770320892334e-08,
				0.033259425312280655,
				-1.1175870895385742e-08
			]
		},
		{
			"children":[
				64
			],
			"name":"DEF-ear.R.002",
			"rotation":[
				-0.7671191096305847,
				0.003784982254728675,
				0.16618938744068146,
				0.6195926666259766
			],
			"scale":[
				0.9999999403953552,
				0.9999999403953552,
				0.9999999403953552
			],
			"translation":[
				4.470348358154297e-08,
				0.0274590365588665,
				8.195638656616211e-08
			]
		},
		{
			"children":[
				65
			],
			"name":"DEF-ear.R.001",
			"rotation":[
				-0.4594400227069855,
				-3.5567637723943335e-08,
				0.2946677803993225,
				0.8379055857658386
			],
			"translation":[
				-7.450580596923828e-09,
				0.037317804992198944,
				-1.4901161193847656e-08
			]
		},
		{
			"children":[
				66
			],
			"name":"DEF-ear.R",
			"rotation":[
				-0.1000048816204071,
				0.09617359936237335,
				0.020871970802545547,
				0.990108072757721
			],
			"scale":[
				0.9999999403953552,
				1.0000001192092896,
				1.0000001192092896
			],
			"translation":[
				-0.07005278766155243,
				0.01939990371465683,
				0.0008066482841968536
			]
		},
		{
			"name":"DEF-brow.T.R.003",
			"rotation":[
				0.30993565917015076,
				0.07383156567811966,
				-0.021816212683916092,
				0.9476354122161865
			],
			"scale":[
				0.9999999403953552,
				1,
				1.0000001192092896
			],
			"translation":[
				2.1653249859809875e-08,
				0.03464392200112343,
				1.4959368854761124e-08
			]
		},
		{
			"children":[
				68
			],
			"name":"DEF-brow.T.R.002",
			"rotation":[
				0.17897579073905945,
				0.02686004340648651,
				-0.19166724383831024,
				0.9646294116973877
			],
			"translation":[
				1.6763806343078613e-08,
				0.028780601918697357,
				1.1315569281578064e-07
			]
		},
		{
			"children":[
				69
			],
			"name":"DEF-brow.T.R.001",
			"rotation":[
				0.3477002680301666,
				-0.05304243415594101,
				-0.17328374087810516,
				0.9199259281158447
			],
			"translation":[
				-6.565824151039124e-08,
				0.028685182332992554,
				-1.0523945093154907e-07
			]
		},
		{
			"children":[
				70
			],
			"name":"DEF-brow.T.R",
			"rotation":[
				0.4132995307445526,
				0.33602020144462585,
				0.07825302332639694,
				0.8427042365074158
			],
			"translation":[
				-0.06819092482328415,
				0.049919575452804565,
				0.04052663967013359
			]
		},
		{
			"name":"DEF-lip.T.R.001",
			"rotation":[
				-0.06451556086540222,
				0.09235616773366928,
				-0.1534058004617691,
				0.9817202687263489
			],
			"scale":[
				1.0000001192092896,
				0.9999999403953552,
				1
			],
			"translation":[
				1.979060471057892e-09,
				0.008267117664217949,
				-8.841743692755699e-08
			]
		},
		{
			"children":[
				72
			],
			"name":"DEF-lip.T.R",
			"rotation":[
				-0.5564270615577698,
				0.391907274723053,
				0.48316341638565063,
				0.5507729053497314
			],
			"scale":[
				0.9999997615814209,
				0.9999998211860657,
				0.9999999403953552
			],
			"translation":[
				2.3013582151065748e-08,
				-0.003572422545403242,
				0.09526994824409485
			]
		},
		{
			"name":"DEF-cheek.B.R.001",
			"rotation":[
				0.38255685567855835,
				-0.001172267715446651,
				-0.2272683084011078,
				0.8955433964729309
			],
			"scale":[
				0.9999999403953552,
				0.9999999403953552,
				1
			],
			"translation":[
				-2.3283064365386963e-08,
				0.038954876363277435,
				1.8952414393424988e-07
			]
		},
		{
			"children":[
				74
			],
			"name":"DEF-cheek.B.R",
			"rotation":[
				-0.5277401208877563,
				0.32360193133354187,
				0.38078898191452026,
				0.6868565678596497
			],
			"scale":[
				1,
				0.9999999403953552,
				1
			],
			"translation":[
				-0.016940506175160408,
				-0.006507571320980787,
				0.08782975375652313
			]
		},
		{
			"name":"DEF-cheek.T.R.001",
			"rotation":[
				0.356693297624588,
				-0.012691723182797432,
				-0.3242286741733551,
				0.8760619759559631
			],
			"scale":[
				0.9999999403953552,
				1.0000001192092896,
				1.0000001192092896
			],
			"translation":[
				2.1420419216156006e-08,
				0.056252941489219666,
				3.073364496231079e-08
			]
		},
		{
			"children":[
				76
			],
			"name":"DEF-cheek.T.R",
			"rotation":[
				0.7712239027023315,
				0.44882482290267944,
				0.38868412375450134,
				0.22955293953418732
			],
			"scale":[
				1.0000001192092896,
				1.000000238418579,
				1.0000001192092896
			],
			"translation":[
				-0.06819092482328415,
				0.049919575452804565,
				0.04052663967013359
			]
		},
		{
			"name":"DEF-brow.B.R.004",
			"rotation":[
				0.03510061278939247,
				-0.17471690475940704,
				-0.17077983915805817,
				0.9690594673156738
			],
			"scale":[
				0.9999999403953552,
				0.9999998807907104,
				1
			],
			"translation":[
				9.313225746154785e-08,
				0.015931451693177223,
				2.8870999813079834e-08
			]
		},
		{
			"children":[
				78
			],
			"name":"DEF-brow.B.R.003",
			"rotation":[
				-0.27924391627311707,
				-0.03041340969502926,
				-0.2838701605796814,
				0.9167963862419128
			],
			"scale":[
				0.9999999403953552,
				1,
				0.9999998807907104
			],
			"translation":[
				-2.0489096641540527e-07,
				0.020569341257214546,
				1.153675839304924e-07
			]
		},
		{
			"children":[
				79
			],
			"name":"DEF-brow.B.R.002",
			"rotation":[
				-0.22680115699768066,
				0.04378129169344902,
				-0.1306867152452469,
				0.9641397595405579
			],
			"scale":[
				1,
				0.9999998807907104,
				0.9999998211860657
			],
			"translation":[
				1.1129304766654968e-07,
				0.014719795435667038,
				-9.313225746154785e-09
			]
		},
		{
			"children":[
				80
			],
			"name":"DEF-brow.B.R.001",
			"rotation":[
				-0.24787332117557526,
				0.04041748866438866,
				-0.08369170129299164,
				0.9643241167068481
			],
			"translation":[
				5.122274160385132e-08,
				0.007082555443048477,
				2.8405338525772095e-08
			]
		},
		{
			"children":[
				81
			],
			"name":"DEF-brow.B.R",
			"rotation":[
				0.008965203538537025,
				-0.591463565826416,
				-0.4328823983669281,
				0.6802229881286621
			],
			"translation":[
				-0.05546361207962036,
				0.05531930550932884,
				0.06690744310617447
			]
		},
		{
			"name":"DEF-eye_iris.R",
			"rotation":[
				-5.161855938240478e-07,
				-0.0005235167336650193,
				9.872020712009544e-08,
				0.9999998807907104
			],
			"translation":[
				-7.08969309926033e-08,
				0.02157033048570156,
				-1.862645149230957e-09
			]
		},
		{
			"children":[
				83
			],
			"name":"DEF-eye.R",
			"rotation":[
				0.10656636953353882,
				-0.07483307272195816,
				0.02425895258784294,
				0.9911887645721436
			],
			"scale":[
				0.9999998807907104,
				0.9999999403953552,
				0.9999998807907104
			],
			"translation":[
				-4.572575562633574e-08,
				6.490154191851616e-09,
				-7.275957614183426e-11
			]
		},
		{
			"name":"DEF-lid.T.R.003",
			"rotation":[
				0.31153571605682373,
				-0.01244957186281681,
				0.23614659905433655,
				0.9203397631645203
			],
			"translation":[
				-1.2665987014770508e-07,
				0.01471785269677639,
				-8.451752364635468e-08
			]
		},
		{
			"children":[
				85
			],
			"name":"DEF-lid.T.R.002",
			"rotation":[
				0.2545204162597656,
				0.004759139381349087,
				0.14062151312828064,
				0.956777036190033
			],
			"scale":[
				0.9999999403953552,
				1,
				0.9999999403953552
			],
			"translation":[
				-9.694485925137997e-08,
				0.01349415723234415,
				-1.862645149230957e-08
			]
		},
		{
			"children":[
				86
			],
			"name":"DEF-lid.T.R.001",
			"rotation":[
				0.22910666465759277,
				0.026912232860922813,
				0.1888774186372757,
				0.9545214772224426
			],
			"scale":[
				0.9999999403953552,
				0.9999999403953552,
				1
			],
			"translation":[
				1.1175870895385742e-07,
				0.010549628175795078,
				2.1420419216156006e-08
			]
		},
		{
			"children":[
				87
			],
			"name":"DEF-lid.T.R",
			"rotation":[
				0.31727588176727295,
				-0.015308703295886517,
				-0.4221649467945099,
				0.8490455746650696
			],
			"scale":[
				0.9999999403953552,
				1,
				0.9999999403953552
			],
			"translation":[
				0.0008169875363819301,
				0.008373796939849854,
				-0.022979099303483963
			]
		},
		{
			"name":"DEF-lid.B.R.003",
			"rotation":[
				0.20829755067825317,
				-0.014063523150980473,
				0.15907631814479828,
				0.9649399518966675
			],
			"scale":[
				1.0000001192092896,
				1,
				1.0000001192092896
			],
			"translation":[
				5.168840289115906e-08,
				0.01418641023337841,
				7.729977369308472e-08
			]
		},
		{
			"children":[
				89
			],
			"name":"DEF-lid.B.R.002",
			"rotation":[
				0.30333903431892395,
				0.0012420688290148973,
				0.08694884926080704,
				0.9489066004753113
			],
			"scale":[
				0.9999999403953552,
				1.0000001192092896,
				1.0000001192092896
			],
			"translation":[
				-2.584420144557953e-08,
				0.014180953614413738,
				-1.0477378964424133e-08
			]
		},
		{
			"children":[
				90
			],
			"name":"DEF-lid.B.R.001",
			"rotation":[
				0.26971572637557983,
				0.008783216588199139,
				0.20598989725112915,
				0.9406086206436157
			],
			"scale":[
				0.9999999403953552,
				1,
				1
			],
			"translation":[
				1.1455267667770386e-07,
				0.01066805049777031,
				-4.377216100692749e-08
			]
		},
		{
			"children":[
				91
			],
			"name":"DEF-lid.B.R",
			"rotation":[
				0.42717576026916504,
				-0.7741587162017822,
				0.4661857783794403,
				0.029496585950255394
			],
			"scale":[
				0.9999998807907104,
				0.9999997615814209,
				0.9999998807907104
			],
			"translation":[
				-0.004454588517546654,
				0.015960263088345528,
				0.016441678628325462
			]
		},
		{
			"children":[
				84,
				88,
				92
			],
			"name":"DEF-eye_master.R",
			"rotation":[
				0.5053143501281738,
				0.5005150437355042,
				0.499792218208313,
				0.4943176507949829
			],
			"scale":[
				1,
				1.0000001192092896,
				0.9999999403953552
			],
			"translation":[
				-0.03130022808909416,
				0.04740063101053238,
				0.05608966574072838
			]
		},
		{
			"name":"DEF-forehead.R",
			"rotation":[
				0.7140511870384216,
				0.08240822702646255,
				-0.6951448917388916,
				0.010646346025168896
			],
			"scale":[
				0.9999990463256836,
				0.9999998807907104,
				0.999999463558197
			],
			"translation":[
				-0.013702662661671638,
				0.09485024213790894,
				0.09368627518415451
			]
		},
		{
			"name":"DEF-forehead.R.001",
			"rotation":[
				-0.8033655881881714,
				-0.07077455520629883,
				0.5912650227546692,
				0.0006396746612153947
			],
			"scale":[
				0.999998152256012,
				0.9999998211860657,
				0.9999989867210388
			],
			"translation":[
				-0.045690473169088364,
				0.0966540277004242,
				0.08325386792421341
			]
		},
		{
			"name":"DEF-forehead.R.002",
			"rotation":[
				0.9465318322181702,
				0.01351790502667427,
				-0.32210391759872437,
				0.011991988867521286
			],
			"scale":[
				1.0000003576278687,
				1.000000238418579,
				1.0000001192092896
			],
			"translation":[
				-0.0649770200252533,
				0.09755849838256836,
				0.06160905584692955
			]
		},
		{
			"name":"DEF-teeth.T",
			"rotation":[
				-0.7068422436714172,
				8.432331810581672e-08,
				8.506703608190946e-08,
				0.7073712348937988
			],
			"scale":[
				1,
				1.0000001192092896,
				1.0000001192092896
			],
			"translation":[
				2.2367174778992194e-08,
				-0.0012731591705232859,
				0.09258251637220383
			]
		},
		{
			"children":[
				17,
				18,
				23,
				27,
				36,
				38,
				40,
				42,
				47,
				58,
				59,
				60,
				61,
				62,
				67,
				71,
				73,
				75,
				77,
				82,
				93,
				94,
				95,
				96,
				97
			],
			"name":"DEF-spine.006",
			"rotation":[
				0.008144561201334,
				-3.1521072418883023e-09,
				-5.120345480946753e-09,
				0.9999668598175049
			],
			"scale":[
				1,
				1.0000001192092896,
				0.9999999403953552
			],
			"translation":[
				-9.853229343548264e-16,
				0.035671912133693695,
				-3.725290298461914e-09
			]
		},
		{
			"children":[
				98
			],
			"name":"DEF-spine.005",
			"rotation":[
				-0.027316220104694366,
				2.638651075415055e-09,
				9.065853845413585e-09,
				0.999626874923706
			],
			"scale":[
				1,
				1,
				0.9999999403953552
			],
			"translation":[
				-7.79848834976931e-16,
				0.0406855009496212,
				0
			]
		},
		{
			"children":[
				99
			],
			"name":"DEF-spine.004",
			"rotation":[
				0.05985013768076897,
				-4.699116445218204e-15,
				-1.4269401660271797e-08,
				0.9982073903083801
			],
			"translation":[
				-2.050301270585921e-15,
				0.1754647195339203,
				-7.450580596923828e-09
			]
		},
		{
			"name":"DEF-breast.L",
			"rotation":[
				-1.2161773099705897e-07,
				-0.6757488250732422,
				-0.7371320128440857,
				5.101762923231945e-08
			],
			"scale":[
				1,
				0.9999998211860657,
				0.9999999403953552
			],
			"translation":[
				0.06708498299121857,
				0.04050200805068016,
				0.05025918409228325
			]
		},
		{
			"name":"DEF-thumb.03.L",
			"rotation":[
				0.09290481358766556,
				0.06681342422962189,
				-0.03480749949812889,
				0.9928207993507385
			],
			"scale":[
				1,
				1.0000001192092896,
				1
			],
			"translation":[
				1.1932570487260818e-08,
				0.02744334377348423,
				-4.767935024574399e-08
			]
		},
		{
			"children":[
				102
			],
			"name":"DEF-thumb.02.L",
			"rotation":[
				0.04785154387354851,
				0.02051325887441635,
				-0.33687493205070496,
				0.9401088953018188
			],
			"scale":[
				1,
				0.9999998807907104,
				1
			],
			"translation":[
				-4.330649971961975e-08,
				0.025913748890161514,
				-2.9249349609017372e-08
			]
		},
		{
			"children":[
				103
			],
			"name":"DEF-thumb.01.L",
			"rotation":[
				0.3483988344669342,
				0.6477136611938477,
				0.3328009843826294,
				0.5901939272880554
			],
			"scale":[
				0.9999999403953552,
				1,
				0.9999998807907104
			],
			"translation":[
				0.0022737644612789154,
				0.02400657907128334,
				0.023571215569972992
			]
		},
		{
			"name":"DEF-f_index.03.L",
			"rotation":[
				0.011335780844092369,
				4.557525912218807e-08,
				-0.01149645447731018,
				0.999869704246521
			],
			"scale":[
				1,
				0.9999999403953552,
				0.9999999403953552
			],
			"translation":[
				-1.862645149230957e-09,
				0.019939905032515526,
				-1.7916318029165268e-07
			]
		},
		{
			"children":[
				105
			],
			"name":"DEF-f_index.02.L",
			"rotation":[
				0.04814291372895241,
				0.0038351917173713446,
				-0.0029575289227068424,
				0.9988287091255188
			],
			"scale":[
				1,
				1,
				0.9999998807907104
			],
			"translation":[
				5.820766091346741e-10,
				0.03387695550918579,
				2.1465893951244652e-08
			]
		},
		{
			"children":[
				106
			],
			"name":"DEF-f_index.01.L",
			"rotation":[
				-0.08115591108798981,
				0.995621383190155,
				0.045392975211143494,
				0.009557546116411686
			],
			"scale":[
				0.9999999403953552,
				1.0000003576278687,
				1
			],
			"translation":[
				2.7939677238464355e-09,
				0.03324147313833237,
				3.934837877750397e-08
			]
		},
		{
			"children":[
				107
			],
			"name":"DEF-palm.01.L",
			"rotation":[
				0.009185293689370155,
				-0.6562910079956055,
				-0.08880407363176346,
				0.7492073774337769
			],
			"scale":[
				0.9999999403953552,
				0.9999997019767761,
				0.9999998211860657
			],
			"translation":[
				-0.0031429033260792494,
				0.047686029225587845,
				0.02226085588335991
			]
		},
		{
			"name":"DEF-f_middle.03.L",
			"rotation":[
				0.024309717118740082,
				-3.580853658036176e-08,
				0.003688812255859375,
				0.9996976852416992
			],
			"scale":[
				1,
				1,
				0.9999999403953552
			],
			"translation":[
				-1.1641532182693481e-10,
				0.023884117603302002,
				1.0455914889462292e-07
			]
		},
		{
			"children":[
				109
			],
			"name":"DEF-f_middle.02.L",
			"rotation":[
				0.028513459488749504,
				-0.0008723227656446397,
				-0.008381076157093048,
				0.9995579123497009
			],
			"scale":[
				1,
				1.0000001192092896,
				1
			],
			"translation":[
				-1.1932570487260818e-09,
				0.032819222658872604,
				-1.0944859241135418e-07
			]
		},
		{
			"children":[
				110
			],
			"name":"DEF-f_middle.01.L",
			"rotation":[
				0.004273917526006699,
				0.9988483786582947,
				0.0477808453142643,
				0.0008716828306205571
			],
			"scale":[
				0.9999999403953552,
				1.000000238418579,
				1
			],
			"translation":[
				1.3969838619232178e-09,
				0.03389875590801239,
				1.263833837583661e-07
			]
		},
		{
			"children":[
				111
			],
			"name":"DEF-palm.02.L",
			"rotation":[
				-0.049278609454631805,
				-0.662929892539978,
				-0.04655222222208977,
				0.7456061840057373
			],
			"scale":[
				0.9999999403953552,
				0.9999997615814209,
				0.9999998211860657
			],
			"translation":[
				-0.00708042923361063,
				0.04866882786154747,
				0.005124189890921116
			]
		},
		{
			"name":"DEF-f_ring.03.L",
			"rotation":[
				0.03123047575354576,
				-9.571633796667811e-08,
				0.010587573982775211,
				0.9994561672210693
			],
			"scale":[
				1,
				0.9999998807907104,
				1
			],
			"translation":[
				1.862645149230957e-09,
				0.021911218762397766,
				-1.2308737495914102e-07
			]
		},
		{
			"children":[
				113
			],
			"name":"DEF-f_ring.02.L",
			"rotation":[
				0.04192781820893288,
				-0.00348740816116333,
				-0.012868456542491913,
				0.999031662940979
			],
			"scale":[
				0.9999998807907104,
				0.9999999403953552,
				0.9999998807907104
			],
			"translation":[
				-3.4924596548080444e-09,
				0.0329166054725647,
				-2.7212081477046013e-09
			]
		},
		{
			"children":[
				114
			],
			"name":"DEF-f_ring.01.L",
			"rotation":[
				-0.10358800739049911,
				-0.992902398109436,
				-0.056544817984104156,
				0.014730983413755894
			],
			"scale":[
				1,
				0.9999998211860657,
				1.0000001192092896
			],
			"translation":[
				7.450580596923828e-09,
				0.034310586750507355,
				1.5832483768463135e-08
			]
		},
		{
			"children":[
				115
			],
			"name":"DEF-palm.03.L",
			"rotation":[
				-0.09203293919563293,
				-0.6716325879096985,
				0.0007361184689216316,
				0.735145628452301
			],
			"scale":[
				0.9999999403953552,
				1,
				0.9999999403953552
			],
			"translation":[
				-0.008585904724895954,
				0.04765919968485832,
				-0.012681405059993267
			]
		},
		{
			"name":"DEF-f_pinky.03.L",
			"rotation":[
				0.035867705941200256,
				-0.004099008161574602,
				0.005316122435033321,
				0.9993340373039246
			],
			"scale":[
				0.9999999403953552,
				0.9999998807907104,
				0.9999999403953552
			],
			"translation":[
				7.450580596923828e-09,
				0.01937858946621418,
				3.009336069226265e-08
			]
		},
		{
			"children":[
				117
			],
			"name":"DEF-f_pinky.02.L",
			"rotation":[
				0.09352950006723404,
				-0.014768063090741634,
				-0.014713010750710964,
				0.995398223400116
			],
			"scale":[
				1,
				0.9999998807907104,
				0.9999998807907104
			],
			"translation":[
				1.3969838619232178e-08,
				0.030115891247987747,
				3.905734047293663e-08
			]
		},
		{
			"children":[
				118
			],
			"name":"DEF-f_pinky.01.L",
			"rotation":[
				-0.16352532804012299,
				-0.9787672758102417,
				-0.11851869523525238,
				0.03503446280956268
			],
			"scale":[
				0.9999999403953552,
				0.9999998211860657,
				1
			],
			"translation":[
				-3.725290298461914e-09,
				0.031140604987740517,
				2.1420419216156006e-08
			]
		},
		{
			"children":[
				119
			],
			"name":"DEF-palm.04.L",
			"rotation":[
				-0.14521706104278564,
				-0.6807755827903748,
				0.020243367180228233,
				0.7176676988601685
			],
			"scale":[
				1,
				1,
				0.9999999403953552
			],
			"translation":[
				-0.00906108133494854,
				0.04515816643834114,
				-0.02725818194448948
			]
		},
		{
			"children":[
				104,
				108,
				112,
				116,
				120
			],
			"name":"DEF-hand.L",
			"rotation":[
				-0.04418433830142021,
				-3.669297541364358e-07,
				-0.006882155779749155,
				0.9989997148513794
			],
			"translation":[
				6.28642737865448e-08,
				0.10401934385299683,
				-1.4901161193847656e-08
			]
		},
		{
			"children":[
				121
			],
			"name":"DEF-forearm.L.001",
			"rotation":[
				7.363269105553627e-08,
				6.384507287293673e-07,
				5.683396011590958e-07,
				1
			],
			"translation":[
				9.313225746154785e-08,
				0.10401935875415802,
				7.450580596923828e-09
			]
		},
		{
			"children":[
				122
			],
			"name":"DEF-forearm.L",
			"rotation":[
				0.057095419615507126,
				-3.67504071618896e-07,
				5.37624946446158e-05,
				0.9983687400817871
			],
			"scale":[
				1,
				1,
				0.9999999403953552
			],
			"translation":[
				1.5832483768463135e-08,
				0.1360091120004654,
				-6.51925802230835e-09
			]
		},
		{
			"children":[
				123
			],
			"name":"DEF-upper_arm.L.001",
			"rotation":[
				1.5133991837501526e-09,
				-1.8422724679112434e-08,
				-1.7462298274040222e-10,
				1
			],
			"translation":[
				1.1851079761981964e-07,
				0.1360090970993042,
				-2.2817403078079224e-08
			]
		},
		{
			"children":[
				124
			],
			"name":"DEF-upper_arm.L",
			"rotation":[
				-0.0032977291848510504,
				0.6651797890663147,
				0.011653833091259003,
				0.7465850114822388
			],
			"translation":[
				-7.940172963571968e-10,
				0.05990949645638466,
				4.600558156653278e-08
			]
		},
		{
			"children":[
				125
			],
			"name":"DEF-shoulder.L",
			"rotation":[
				-0.4778265357017517,
				-0.4778256118297577,
				-0.5212299227714539,
				0.5212330222129822
			],
			"scale":[
				0.9999998807907104,
				0.9999998211860657,
				0.9999999403953552
			],
			"translation":[
				0.030071601271629333,
				0.12192036956548691,
				-0.01942780613899231
			]
		},
		{
			"name":"DEF-breast.R",
			"rotation":[
				-1.2161773099705897e-07,
				-0.6757488250732422,
				-0.7371320128440857,
				5.101762923231945e-08
			],
			"scale":[
				1,
				0.9999998211860657,
				0.9999999403953552
			],
			"translation":[
				-0.06708495318889618,
				0.04050200805068016,
				0.05025921389460564
			]
		},
		{
			"name":"DEF-thumb.03.R",
			"rotation":[
				0.09290482103824615,
				-0.06681341677904129,
				0.03480749949812889,
				0.9928207993507385
			],
			"scale":[
				0.9999999403953552,
				1.0000001192092896,
				0.9999999403953552
			],
			"translation":[
				7.974449545145035e-09,
				0.0274432934820652,
				-5.4780684877187014e-08
			]
		},
		{
			"children":[
				128
			],
			"name":"DEF-thumb.02.R",
			"rotation":[
				0.0478515550494194,
				-0.020513271912932396,
				0.3368748724460602,
				0.9401089549064636
			],
			"scale":[
				1,
				0.9999999403953552,
				1.0000001192092896
			],
			"translation":[
				1.100124791264534e-08,
				0.025913745164871216,
				-3.13448254019022e-08
			]
		},
		{
			"children":[
				129
			],
			"name":"DEF-thumb.01.R",
			"rotation":[
				0.34839877486228943,
				-0.6477137207984924,
				-0.33280086517333984,
				0.5901939272880554
			],
			"scale":[
				0.9999999403953552,
				0.9999998807907104,
				0.9999998211860657
			],
			"translation":[
				-0.002273645717650652,
				0.024006571620702744,
				0.023571236059069633
			]
		},
		{
			"name":"DEF-f_index.03.R",
			"rotation":[
				0.01133577711880207,
				-4.569169576029708e-08,
				0.01149645447731018,
				0.9998696446418762
			],
			"scale":[
				1,
				1,
				0.9999999403953552
			],
			"translation":[
				9.313225746154785e-10,
				0.019939962774515152,
				-6.722984835505486e-08
			]
		},
		{
			"children":[
				131
			],
			"name":"DEF-f_index.02.R",
			"rotation":[
				0.04814291372895241,
				-0.0038351966068148613,
				0.0029575342778116465,
				0.9988287091255188
			],
			"scale":[
				1,
				1,
				0.9999998807907104
			],
			"translation":[
				2.3283064365386963e-09,
				0.03387696295976639,
				2.5765075406525284e-08
			]
		},
		{
			"children":[
				132
			],
			"name":"DEF-f_index.01.R",
			"rotation":[
				-0.081155925989151,
				-0.9956213235855103,
				-0.04539297893643379,
				0.00955754704773426
			],
			"scale":[
				1,
				1.0000003576278687,
				1
			],
			"translation":[
				2.1420419216156006e-08,
				0.03324145823717117,
				3.952300176024437e-08
			]
		},
		{
			"children":[
				133
			],
			"name":"DEF-palm.01.R",
			"rotation":[
				0.009185303933918476,
				0.6562910079956055,
				0.08880408108234406,
				0.7492073774337769
			],
			"scale":[
				1,
				0.9999997019767761,
				0.9999999403953552
			],
			"translation":[
				0.0031429026275873184,
				0.04768602177500725,
				0.022260861471295357
			]
		},
		{
			"name":"DEF-f_middle.03.R",
			"rotation":[
				0.02430972456932068,
				3.537548920462541e-08,
				-0.0036888117901980877,
				0.9996976852416992
			],
			"scale":[
				1,
				1,
				0.9999999403953552
			],
			"translation":[
				-8.731149137020111e-10,
				0.023884082213044167,
				-3.646346158348024e-08
			]
		},
		{
			"children":[
				135
			],
			"name":"DEF-f_middle.02.R",
			"rotation":[
				0.028513498604297638,
				0.0008723150240257382,
				0.008381076157093048,
				0.9995579123497009
			],
			"scale":[
				0.9999999403953552,
				0.9999999403953552,
				1
			],
			"translation":[
				-1.7462298274040222e-09,
				0.03281910717487335,
				-2.1611049305647612e-07
			]
		},
		{
			"children":[
				136
			],
			"name":"DEF-f_middle.01.R",
			"rotation":[
				0.004273909144103527,
				-0.9988483190536499,
				-0.04778086021542549,
				0.0008716827142052352
			],
			"scale":[
				0.9999998807907104,
				1.0000004768371582,
				0.9999999403953552
			],
			"translation":[
				-9.313225746154785e-10,
				0.0338987335562706,
				2.456072252243757e-07
			]
		},
		{
			"children":[
				137
			],
			"name":"DEF-palm.02.R",
			"rotation":[
				-0.04927860572934151,
				0.6629298329353333,
				0.046552225947380066,
				0.7456061840057373
			],
			"translation":[
				0.007080548908561468,
				0.048668816685676575,
				0.0051241908222436905
			]
		},
		{
			"name":"DEF-f_ring.03.R",
			"rotation":[
				0.03123048134148121,
				9.388180188807382e-08,
				-0.010587578639388084,
				0.9994561672210693
			],
			"scale":[
				1,
				0.9999999403953552,
				1
			],
			"translation":[
				5.587935447692871e-09,
				0.02191121131181717,
				-1.9397702999413013e-08
			]
		},
		{
			"children":[
				139
			],
			"name":"DEF-f_ring.02.R",
			"rotation":[
				0.04192782938480377,
				0.0034874025732278824,
				0.012868463061749935,
				0.9990317225456238
			],
			"scale":[
				0.9999998807907104,
				0.9999999403953552,
				0.9999998211860657
			],
			"translation":[
				-9.778887033462524e-09,
				0.03291657939553261,
				1.1994416126981378e-08
			]
		},
		{
			"children":[
				140
			],
			"name":"DEF-f_ring.01.R",
			"rotation":[
				-0.10358799248933792,
				0.992902398109436,
				0.05654483661055565,
				0.014730981551110744
			],
			"scale":[
				1,
				0.9999997019767761,
				1
			],
			"translation":[
				-1.1175870895385742e-08,
				0.03431050106883049,
				1.6530975699424744e-08
			]
		},
		{
			"children":[
				141
			],
			"name":"DEF-palm.03.R",
			"rotation":[
				-0.09203294664621353,
				0.6716325879096985,
				-0.0007361083407886326,
				0.735145628452301
			],
			"translation":[
				0.008585904724895954,
				0.04765918850898743,
				-0.012681400403380394
			]
		},
		{
			"name":"DEF-f_pinky.03.R",
			"rotation":[
				0.035867732018232346,
				0.00409900676459074,
				-0.005316140130162239,
				0.9993340373039246
			],
			"scale":[
				0.9999999403953552,
				0.9999998211860657,
				0.9999999403953552
			],
			"translation":[
				1.30385160446167e-08,
				0.019378699362277985,
				1.446460373699665e-07
			]
		},
		{
			"children":[
				143
			],
			"name":"DEF-f_pinky.02.R",
			"rotation":[
				0.0935295820236206,
				0.014768165536224842,
				0.014712977223098278,
				0.995398223400116
			],
			"scale":[
				1.0000001192092896,
				0.9999998807907104,
				1
			],
			"translation":[
				-6.51925802230835e-09,
				0.030115818604826927,
				9.709037840366364e-08
			]
		},
		{
			"children":[
				144
			],
			"name":"DEF-f_pinky.01.R",
			"rotation":[
				-0.16352522373199463,
				0.9787672758102417,
				0.11851869523525238,
				0.035034578293561935
			],
			"scale":[
				0.9999999403953552,
				1.0000003576278687,
				0.9999998807907104
			],
			"translation":[
				1.4901161193847656e-08,
				0.03114059381186962,
				3.725290298461914e-09
			]
		},
		{
			"children":[
				145
			],
			"name":"DEF-palm.04.R",
			"rotation":[
				-0.14521703124046326,
				0.6807754635810852,
				-0.02024335041642189,
				0.7176676988601685
			],
			"scale":[
				1.0000001192092896,
				1,
				1
			],
			"translation":[
				0.009061082266271114,
				0.04515815153717995,
				-0.02725817821919918
			]
		},
		{
			"children":[
				130,
				134,
				138,
				142,
				146
			],
			"name":"DEF-hand.R",
			"rotation":[
				-0.04418434575200081,
				3.676143762731954e-07,
				0.00688215671107173,
				0.9989997148513794
			],
			"scale":[
				0.9999999403953552,
				1,
				0.9999999403953552
			],
			"translation":[
				-1.8440186977386475e-07,
				0.10401937365531921,
				-2.9802322387695312e-08
			]
		},
		{
			"children":[
				147
			],
			"name":"DEF-forearm.R.001",
			"rotation":[
				7.549533620476723e-08,
				-6.377813406288624e-07,
				-5.678738830283692e-07,
				1
			],
			"scale":[
				1.0000001192092896,
				1.0000001192092896,
				1
			],
			"translation":[
				2.514570951461792e-08,
				0.104019396007061,
				3.725290298461914e-09
			]
		},
		{
			"children":[
				148
			],
			"name":"DEF-forearm.R",
			"rotation":[
				0.057095419615507126,
				3.678610767110513e-07,
				-5.376342232921161e-05,
				0.9983687400817871
			],
			"scale":[
				1.0000001192092896,
				1.0000001192092896,
				1
			],
			"translation":[
				-1.5366822481155396e-08,
				0.13600914180278778,
				1.6298145055770874e-08
			]
		},
		{
			"children":[
				149
			],
			"name":"DEF-upper_arm.R.001",
			"rotation":[
				-2.2118911147117615e-09,
				1.6836565919220448e-08,
				5.820766091346741e-11,
				1
			],
			"translation":[
				-1.1851079761981964e-07,
				0.1360090672969818,
				-2.421438694000244e-08
			]
		},
		{
			"children":[
				150
			],
			"name":"DEF-upper_arm.R",
			"rotation":[
				-0.003297724761068821,
				-0.6651799082756042,
				-0.011653830297291279,
				0.7465850114822388
			],
			"scale":[
				0.9999999403953552,
				0.9999998807907104,
				0.9999999403953552
			],
			"translation":[
				-4.591584001900628e-09,
				0.05990948528051376,
				1.6579328132593218e-07
			]
		},
		{
			"children":[
				151
			],
			"name":"DEF-shoulder.R",
			"rotation":[
				-0.47782644629478455,
				0.477825790643692,
				0.5212301015853882,
				0.5212328433990479
			],
			"scale":[
				1,
				1,
				0.9999999403953552
			],
			"translation":[
				-0.03007161244750023,
				0.12192036956548691,
				-0.019427791237831116
			]
		},
		{
			"children":[
				100,
				101,
				126,
				127,
				152
			],
			"name":"DEF-spine.003",
			"rotation":[
				-0.027505716308951378,
				2.7752197648235263e-14,
				6.5579013330818725e-09,
				0.9996216893196106
			],
			"translation":[
				3.9464249688379036e-16,
				0.13902537524700165,
				3.899913281202316e-09
			]
		},
		{
			"children":[
				153
			],
			"name":"DEF-spine.002",
			"rotation":[
				-0.07746394723653793,
				4.008848544193467e-15,
				1.8468846008090622e-08,
				0.9969951510429382
			],
			"scale":[
				1,
				1.0000001192092896,
				1
			],
			"translation":[
				-1.8838271091984552e-15,
				0.10987479984760284,
				-7.450580596923828e-09
			]
		},
		{
			"children":[
				154
			],
			"name":"DEF-spine.001",
			"rotation":[
				-0.08421854674816132,
				-2.9723876693310558e-08,
				8.874825141447218e-08,
				0.9964473247528076
			],
			"translation":[
				1.509903313490213e-14,
				0.10504382848739624,
				2.2351741790771484e-08
			]
		},
		{
			"name":"DEF-toe.L",
			"rotation":[
				-0.2314443290233612,
				-1.0941821670940044e-07,
				0.000982829718850553,
				0.9728477001190186
			],
			"scale":[
				0.9999999403953552,
				1,
				1
			],
			"translation":[
				-8.833012543618679e-09,
				0.1650611013174057,
				2.3865140974521637e-09
			]
		},
		{
			"children":[
				156
			],
			"name":"DEF-foot.L",
			"rotation":[
				-0.5948450565338135,
				-0.1451001614332199,
				0.008592728525400162,
				0.7905893921852112
			],
			"scale":[
				0.9999999403953552,
				0.9999999403953552,
				0.9999999403953552
			],
			"translation":[
				-9.313225746154785e-09,
				0.19913250207901,
				5.587935447692871e-09
			]
		},
		{
			"children":[
				157
			],
			"name":"DEF-shin.L.001",
			"rotation":[
				-2.0489100194254206e-08,
				1.862645371275562e-09,
				5.587936335871291e-09,
				1
			],
			"scale":[
				0.9999999403953552,
				0.9999998211860657,
				0.9999999403953552
			],
			"translation":[
				-4.6566128730773926e-09,
				0.19913250207901,
				1.1175870895385742e-08
			]
		},
		{
			"children":[
				158
			],
			"name":"DEF-shin.L",
			"rotation":[
				0.10554800927639008,
				4.021512012286621e-08,
				-0.0003506238281261176,
				0.9944141507148743
			],
			"scale":[
				0.9999998807907104,
				1,
				1
			],
			"translation":[
				1.862645149230957e-09,
				0.19582711160182953,
				1.862645149230957e-09
			]
		},
		{
			"children":[
				159
			],
			"name":"DEF-thigh.L.001",
			"rotation":[
				4.109461215762167e-08,
				-3.885361721245317e-08,
				7.310882921274242e-08,
				1
			],
			"scale":[
				0.9999999403953552,
				0.9999999403953552,
				0.9999999403953552
			],
			"translation":[
				1.3969838619232178e-08,
				0.19582721590995789,
				4.6566128730773926e-09
			]
		},
		{
			"children":[
				160
			],
			"name":"DEF-thigh.L",
			"rotation":[
				-0.5816832780838013,
				-0.4481613337993622,
				0.6514618396759033,
				0.19077102839946747
			],
			"scale":[
				1,
				1.0000003576278687,
				1.0000001192092896
			],
			"translation":[
				-0.014796428382396698,
				0.0834791362285614,
				-0.03494304418563843
			]
		},
		{
			"children":[
				161
			],
			"name":"DEF-pelvis.L",
			"rotation":[
				-0.16996929049491882,
				-0.7899122834205627,
				-0.308157742023468,
				0.5021830797195435
			],
			"scale":[
				0.9999999403953552,
				1.0000001192092896,
				0.9999999403953552
			],
			"translation":[
				7.105427357601002e-15,
				5.4016705774984075e-08,
				1.4901164746561335e-08
			]
		},
		{
			"name":"DEF-toe.R",
			"rotation":[
				-0.2314443290233612,
				1.0500559000092835e-07,
				-0.0009828535839915276,
				0.9728477001190186
			],
			"translation":[
				-3.499735612422228e-09,
				0.16506117582321167,
				1.57160684466362e-09
			]
		},
		{
			"children":[
				163
			],
			"name":"DEF-foot.R",
			"rotation":[
				-0.5948451161384583,
				0.1451001763343811,
				-0.008592729456722736,
				0.7905893325805664
			],
			"translation":[
				-9.313225746154785e-09,
				0.19913256168365479,
				-3.725290298461914e-09
			]
		},
		{
			"children":[
				164
			],
			"name":"DEF-shin.R.001",
			"rotation":[
				4.656612428988183e-09,
				-2.7939677238464355e-09,
				-1.8626449271863521e-09,
				1
			],
			"scale":[
				1.0000001192092896,
				1.0000001192092896,
				1
			],
			"translation":[
				1.0244548320770264e-08,
				0.19913256168365479,
				-3.725290298461914e-09
			]
		},
		{
			"children":[
				165
			],
			"name":"DEF-shin.R",
			"rotation":[
				0.10554802417755127,
				-2.514245167617446e-08,
				0.00035063529503531754,
				0.9944141507148743
			],
			"scale":[
				1,
				0.9999999403953552,
				1.0000001192092896
			],
			"translation":[
				-4.656612873077393e-10,
				0.19582724571228027,
				5.587935447692871e-09
			]
		},
		{
			"children":[
				166
			],
			"name":"DEF-thigh.R.001",
			"rotation":[
				-3.026798367500305e-09,
				2.4971086531877518e-08,
				-3.4924596548080444e-09,
				1
			],
			"translation":[
				-4.6566128730773926e-09,
				0.1958271712064743,
				1.3969838619232178e-09
			]
		},
		{
			"children":[
				167
			],
			"name":"DEF-thigh.R",
			"rotation":[
				-0.5816832780838013,
				0.44816118478775024,
				-0.6514619588851929,
				0.19077087938785553
			],
			"scale":[
				1,
				0.9999999403953552,
				0.9999999403953552
			],
			"translation":[
				0.014796450734138489,
				0.08347904682159424,
				-0.034943126142024994
			]
		},
		{
			"children":[
				168
			],
			"name":"DEF-pelvis.R",
			"rotation":[
				-0.16996930539608002,
				0.7899124026298523,
				0.3081578314304352,
				0.5021829009056091
			],
			"scale":[
				0.9999998211860657,
				0.9999997615814209,
				0.9999998807907104
			],
			"translation":[
				2.980232949312267e-08,
				5.401671288041143e-08,
				1.4901158529312397e-08
			]
		},
		{
			"children":[
				155,
				162,
				169
			],
			"name":"DEF-spine",
			"rotation":[
				0.14543354511260986,
				-8.404484219681763e-08,
				-8.404483509139027e-08,
				0.9893680810928345
			],
			"translation":[
				-1.4901161193847656e-08,
				0.8300290107727051,
				-0.07605524361133575
			]
		},
		{
			"mesh":0,
			"name":"Body",
			"skin":0
		},
		{
			"mesh":1,
			"name":"Eye.L",
			"skin":0
		},
		{
			"mesh":2,
			"name":"Eye.R",
			"skin":0
		},
		{
			"mesh":3,
			"name":"Hair",
			"skin":0
		},
		{
			"mesh":4,
			"name":"Shoes",
			"skin":0
		},
		{
			"mesh":5,
			"name":"Shorts",
			"skin":0
		},
		{
			"children":[
				171,
				172,
				173,
				174,
				175,
				176,
				170
			],
			"name":"Rig"
		}
	],
	"materials":[
		{
			"doubleSided":true,
			"extensions":{
				"KHR_materials_specular":{
					"specularColorFactor":[
						0.711407312601205,
						0.711407312601205,
						0.711407312601205
					]
				},
				"KHR_materials_ior":{
					"ior":1.4500000476837158
				}
			},
			"name":"Gijinka_Skin",
			"pbrMetallicRoughness":{
				"baseColorTexture":{
					"index":0
				},
				"metallicFactor":0
			}
		},
		{
			"doubleSided":true,
			"emissiveFactor":[
				1,
				1,
				1
			],
			"name":"eyeWhite",
			"pbrMetallicRoughness":{
				"baseColorFactor":[
					0.800000011920929,
					0.800000011920929,
					0.800000011920929,
					1
				],
				"metallicFactor":0,
				"roughnessFactor":0.5
			}
		},
		{
			"doubleSided":true,
			"emissiveFactor":[
				1,
				1,
				1
			],
			"extensions":{
				"KHR_materials_emissive_strength":{
					"emissiveStrength":1.3444040715694427
				}
			},
			"name":"rokoWhite",
			"pbrMetallicRoughness":{
				"baseColorFactor":[
					0,
					0,
					0,
					1
				]
			}
		},
		{
			"doubleSided":true,
			"extensions":{
				"KHR_materials_specular":{
					"specularColorFactor":[
						0,
						0,
						0
					]
				},
				"KHR_materials_ior":{
					"ior":1.4500000476837158
				}
			},
			"name":"gijinka_Black",
			"pbrMetallicRoughness":{
				"baseColorFactor":[
					0,
					0,
					0,
					1
				],
				"metallicFactor":0,
				"roughnessFactor":0
			}
		},
		{
			"doubleSided":true,
			"extensions":{
				"KHR_materials_specular":{
					"specularColorFactor":[
						0,
						0,
						0
					]
				},
				"KHR_materials_ior":{
					"ior":1.4500000476837158
				}
			},
			"name":"gijinka iris",
			"pbrMetallicRoughness":{
				"baseColorFactor":[
					0.6239606142044067,
					0.07227164506912231,
					0.08865559846162796,
					1
				],
				"metallicFactor":0,
				"roughnessFactor":0.5
			}
		},
		{
			"doubleSided":true,
			"extensions":{
				"KHR_materials_specular":{
					"specularColorFactor":[
						0.6219105234017493,
						0.621910720386787,
						1.1670043675853718
					]
				},
				"KHR_materials_ior":{
					"ior":1.4500000476837158
				}
			},
			"name":"Hair 01",
			"pbrMetallicRoughness":{
				"baseColorFactor":[
					0.017641928046941757,
					0.017641933634877205,
					0.03310477361083031,
					1
				],
				"metallicFactor":0,
				"roughnessFactor":0.6642618179321289
			}
		},
		{
			"doubleSided":true,
			"name":"Hair 02",
			"pbrMetallicRoughness":{
				"baseColorFactor":[
					0.6104958057403564,
					0.07227165997028351,
					0.08650046586990356,
					1
				],
				"metallicFactor":0,
				"roughnessFactor":0.6836065649986267
			}
		},
		{
			"doubleSided":true,
			"extensions":{
				"KHR_materials_specular":{
					"specularColorFactor":[
						0.5325835682643146,
						0.5325835682643146,
						0.5325835682643146
					]
				},
				"KHR_materials_ior":{
					"ior":1.4500000476837158
				}
			},
			"name":"canvas",
			"pbrMetallicRoughness":{
				"baseColorFactor":[
					0.6375967264175415,
					0.34191402792930603,
					0.3662526309490204,
					1
				],
				"metallicFactor":0,
				"roughnessFactor":0.8543307185173035
			}
		},
		{
			"doubleSided":true,
			"name":"rubber",
			"pbrMetallicRoughness":{
				"baseColorFactor":[
					0.800000011920929,
					0.800000011920929,
					0.800000011920929,
					1
				],
				"metallicFactor":0,
				"roughnessFactor":0.5
			}
		},
		{
			"doubleSided":true,
			"extensions":{
				"KHR_materials_specular":{
					"specularColorFactor":[
						0.49481081688033535,
						0.49481081688033535,
						0.49481081688033535
					]
				},
				"KHR_materials_ior":{
					"ior":1.4500000476837158
				}
			},
			"name":"black rubber",
			"pbrMetallicRoughness":{
				"baseColorFactor":[
					0,
					0,
					0,
					1
				],
				"metallicFactor":0,
				"roughnessFactor":0.6417322754859924
			}
		},
		{
			"doubleSided":true,
			"name":"Laces",
			"pbrMetallicRoughness":{
				"baseColorFactor":[
					0.800000011920929,
					0.800000011920929,
					0.800000011920929,
					1
				],
				"metallicFactor":0,
				"roughnessFactor":0.5
			}
		},
		{
			"doubleSided":true,
			"name":"metal",
			"pbrMetallicRoughness":{
				"baseColorFactor":[
					0.800000011920929,
					0.800000011920929,
					0.800000011920929,
					1
				],
				"roughnessFactor":0.5
			}
		},
		{
			"doubleSided":true,
			"extensions":{
				"KHR_materials_specular":{
					"specularColorFactor":[
						0.05053709751192799,
						0.05053709751192799,
						0.05053709751192799
					]
				},
				"KHR_materials_ior":{
					"ior":1.4500000476837158
				}
			},
			"name":"Material.001",
			"pbrMetallicRoughness":{
				"baseColorFactor":[
					0.05780532956123352,
					0.05780535191297531,
					0.10461647808551788,
					1
				],
				"metallicFactor":0
			}
		}
	],
	"meshes":[
		{
			"name":"Body",
			"primitives":[
				{
					"attributes":{
						"COLOR_0":0,
						"POSITION":1,
						"NORMAL":2,
						"TEXCOORD_0":3,
						"JOINTS_0":4,
						"WEIGHTS_0":5
					},
					"indices":6,
					"material":0
				},
				{
					"attributes":{
						"COLOR_0":7,
						"POSITION":8,
						"NORMAL":9,
						"TEXCOORD_0":10,
						"JOINTS_0":11,
						"WEIGHTS_0":12
					},
					"indices":13,
					"material":1
				}
			]
		},
		{
			"name":"Eye.L",
			"primitives":[
				{
					"attributes":{
						"COLOR_0":15,
						"POSITION":16,
						"NORMAL":17,
						"TEXCOORD_0":18,
						"JOINTS_0":19,
						"WEIGHTS_0":20
					},
					"indices":21,
					"material":2
				},
				{
					"attributes":{
						"COLOR_0":22,
						"POSITION":23,
						"NORMAL":24,
						"TEXCOORD_0":25,
						"JOINTS_0":26,
						"WEIGHTS_0":27
					},
					"indices":28,
					"material":3
				},
				{
					"attributes":{
						"COLOR_0":29,
						"POSITION":30,
						"NORMAL":31,
						"TEXCOORD_0":32,
						"JOINTS_0":33,
						"WEIGHTS_0":34
					},
					"indices":35,
					"material":4
				}
			]
		},
		{
			"name":"Eye.R",
			"primitives":[
				{
					"attributes":{
						"COLOR_0":36,
						"POSITION":37,
						"NORMAL":38,
						"TEXCOORD_0":39,
						"JOINTS_0":40,
						"WEIGHTS_0":41
					},
					"indices":21,
					"material":2
				},
				{
					"attributes":{
						"COLOR_0":42,
						"POSITION":43,
						"NORMAL":44,
						"TEXCOORD_0":45,
						"JOINTS_0":46,
						"WEIGHTS_0":47
					},
					"indices":28,
					"material":3
				},
				{
					"attributes":{
						"COLOR_0":48,
						"POSITION":49,
						"NORMAL":50,
						"TEXCOORD_0":51,
						"JOINTS_0":52,
						"WEIGHTS_0":53
					},
					"indices":35,
					"material":4
				}
			]
		},
		{
			"name":"Hair",
			"primitives":[
				{
					"attributes":{
						"POSITION":54,
						"NORMAL":55,
						"TEXCOORD_0":56,
						"JOINTS_0":57,
						"WEIGHTS_0":58
					},
					"indices":59,
					"material":5
				},
				{
					"attributes":{
						"POSITION":60,
						"NORMAL":61,
						"TEXCOORD_0":62,
						"JOINTS_0":63,
						"WEIGHTS_0":64
					},
					"indices":65,
					"material":6
				}
			]
		},
		{
			"name":"Shoes",
			"primitives":[
				{
					"attributes":{
						"POSITION":66,
						"NORMAL":67,
						"TEXCOORD_0":68,
						"JOINTS_0":69,
						"WEIGHTS_0":70
					},
					"indices":71,
					"material":7
				},
				{
					"attributes":{
						"POSITION":72,
						"NORMAL":73,
						"TEXCOORD_0":74,
						"JOINTS_0":75,
						"WEIGHTS_0":76
					},
					"indices":77,
					"material":8
				},
				{
					"attributes":{
						"POSITION":78,
						"NORMAL":79,
						"TEXCOORD_0":80,
						"JOINTS_0":81,
						"WEIGHTS_0":82
					},
					"indices":83,
					"material":9
				},
				{
					"attributes":{
						"POSITION":84,
						"NORMAL":85,
						"TEXCOORD_0":86,
						"JOINTS_0":87,
						"WEIGHTS_0":88
					},
					"indices":89,
					"material":10
				},
				{
					"attributes":{
						"POSITION":90,
						"NORMAL":91,
						"TEXCOORD_0":92,
						"JOINTS_0":93,
						"WEIGHTS_0":94
					},
					"indices":95,
					"material":11
				}
			]
		},
		{
			"name":"Shorts",
			"primitives":[
				{
					"attributes":{
						"COLOR_0":96,
						"POSITION":97,
						"NORMAL":98,
						"TEXCOORD_0":99,
						"JOINTS_0":100,
						"WEIGHTS_0":101
					},
					"indices":102,
					"material":12
				}
			]
		}
	],
	"textures":[
		{
			"sampler":0,
			"source":0
		}
	],
	"images":[
		{
			"mimeType":"image/png",
			"name":"basehumanfemaleskin",
			"uri":"../textures/basehumanfemaleskin.png"
		}
	],
	"skins":[
		{
			"inverseBindMatrices":14,
			"joints":[
				170,
				155,
				154,
				153,
				100,
				99,
				98,
				17,
				1,
				0,
				4,
				3,
				2,
				6,
				5,
				9,
				8,
				7,
				11,
				10,
				12,
				15,
				14,
				13,
				16,
				18,
				23,
				22,
				21,
				20,
				19,
				27,
				26,
				25,
				24,
				36,
				31,
				30,
				29,
				28,
				33,
				32,
				35,
				34,
				38,
				37,
				40,
				39,
				42,
				41,
				47,
				46,
				45,
				44,
				43,
				58,
				49,
				48,
				53,
				52,
				51,
				50,
				57,
				56,
				55,
				54,
				59,
				60,
				61,
				62,
				67,
				66,
				65,
				64,
				63,
				71,
				70,
				69,
				68,
				73,
				72,
				75,
				74,
				77,
				76,
				82,
				81,
				80,
				79,
				78,
				93,
				84,
				83,
				88,
				87,
				86,
				85,
				92,
				91,
				90,
				89,
				94,
				95,
				96,
				97,
				101,
				126,
				125,
				124,
				123,
				122,
				121,
				104,
				103,
				102,
				108,
				107,
				106,
				105,
				112,
				111,
				110,
				109,
				116,
				115,
				114,
				113,
				120,
				119,
				118,
				117,
				127,
				152,
				151,
				150,
				149,
				148,
				147,
				130,
				129,
				128,
				134,
				133,
				132,
				131,
				138,
				137,
				136,
				135,
				142,
				141,
				140,
				139,
				146,
				145,
				144,
				143,
				162,
				161,
				160,
				159,
				158,
				157,
				156,
				169,
				168,
				167,
				166,
				165,
				164,
				163
			],
			"name":"Rig"
		}
	],
	"accessors":[
		{
			"bufferView":0,
			"componentType":5123,
			"count":12811,
			"normalized":true,
			"type":"VEC4"
		},
		{
			"bufferView":1,
			"componentType":5126,
			"count":12811,
			"max":[
				0.7505165934562683,
				1.6034188270568848,
				0.1191909909248352
			],
			"min":[
				-0.7505165934562683,
				0.00017312276759184897,
				-0.14624172449111938
			],
			"type":"VEC3"
		},
		{
			"bufferView":2,
			"componentType":5126,
			"count":12811,
			"type":"VEC3"
		},
		{
			"bufferView":3,
			"componentType":5126,
			"count":12811,
			"type":"VEC2"
		},
		{
			"bufferView":4,
			"componentType":5121,
			"count":12811,
			"type":"VEC4"
		},
		{
			"bufferView":5,
			"componentType":5126,
			"count":12811,
			"type":"VEC4"
		},
		{
			"bufferView":6,
			"componentType":5123,
			"count":72108,
			"type":"SCALAR"
		},
		{
			"bufferView":7,
			"componentType":5123,
			"count":190,
			"normalized":true,
			"type":"VEC4"
		},
		{
			"bufferView":8,
			"componentType":5126,
			"count":190,
			"max":[
				0.06077418848872185,
				1.5019465684890747,
				0.022388067096471786
			],
			"min":[
				-0.06077418848872185,
				1.452535629272461,
				-0.006877942010760307
			],
			"type":"VEC3"
		},
		{
			"bufferView":9,
			"componentType":5126,
			"count":190,
			"type":"VEC3"
		},
		{
			"bufferView":10,
			"componentType":5126,
			"count":190,
			"type":"VEC2"
		},
		{
			"bufferView":11,
			"componentType":5121,
			"count":190,
			"type":"VEC4"
		},
		{
			"bufferView":12,
			"componentType":5126,
			"count":190,
			"type":"VEC4"
		},
		{
			"bufferView":13,
			"componentType":5123,
			"count":1008,
			"type":"SCALAR"
		},
		{
			"bufferView":14,
			"componentType":5126,
			"count":171,
			"type":"MAT4"
		},
		{
			"bufferView":15,
			"componentType":5123,
			"count":52,
			"normalized":true,
			"type":"VEC4"
		},
		{
			"bufferView":16,
			"componentType":5126,
			"count":52,
			"max":[
				-0.029867297038435936,
				1.4808824062347412,
				0.01918191835284233
			],
			"min":[
				-0.04110517352819443,
				1.4760221242904663,
				0.015901736915111542
			],
			"type":"VEC3"
		},
		{
			"bufferView":17,
			"componentType":5126,
			"count":52,
			"type":"VEC3"
		},
		{
			"bufferView":18,
			"componentType":5126,
			"count":52,
			"type":"VEC2"
		},
		{
			"bufferView":19,
			"componentType":5121,
			"count":52,
			"type":"VEC4"
		},
		{
			"bufferView":20,
			"componentType":5126,
			"count":52,
			"type":"VEC4"
		},
		{
			"bufferView":21,
			"componentType":5123,
			"count":144,
			"type":"SCALAR"
		},
		{
			"bufferView":22,
			"componentType":5123,
			"count":320,
			"normalized":true,
			"type":"VEC4"
		},
		{
			"bufferView":23,
			"componentType":5126,
			"count":320,
			"max":[
				-0.020244276151061058,
				1.489973545074463,
				0.01905052922666073
			],
			"min":[
				-0.04235690087080002,
				1.4649643898010254,
				0.015804216265678406
			],
			"type":"VEC3"
		},
		{
			"bufferView":24,
			"componentType":5126,
			"count":320,
			"type":"VEC3"
		},
		{
			"bufferView":25,
			"componentType":5126,
			"count":320,
			"type":"VEC2"
		},
		{
			"bufferView":26,
			"componentType":5121,
			"count":320,
			"type":"VEC4"
		},
		{
			"bufferView":27,
			"componentType":5126,
			"count":320,
			"type":"VEC4"
		},
		{
			"bufferView":28,
			"componentType":5123,
			"count":1152,
			"type":"SCALAR"
		},
		{
			"bufferView":29,
			"componentType":5123,
			"count":192,
			"normalized":true,
			"type":"VEC4"
		},
		{
			"bufferView":30,
			"componentType":5126,
			"count":192,
			"max":[
				-0.022230343893170357,
				1.487724781036377,
				0.01905052922666073
			],
			"min":[
				-0.04037079960107803,
				1.4671951532363892,
				0.01842721365392208
			],
			"type":"VEC3"
		},
		{
			"bufferView":31,
			"componentType":5126,
			"count":192,
			"type":"VEC3"
		},
		{
			"bufferView":32,
			"componentType":5126,
			"count":192,
			"type":"VEC2"
		},
		{
			"bufferView":33,
			"componentType":5121,
			"count":192,
			"type":"VEC4"
		},
		{
			"bufferView":34,
			"componentType":5126,
			"count":192,
			"type":"VEC4"
		},
		{
			"bufferView":35,
			"componentType":5123,
			"count":576,
			"type":"SCALAR"
		},
		{
			"bufferView":36,
			"componentType":5123,
			"count":52,
			"normalized":true,
			"type":"VEC4"
		},
		{
			"bufferView":37,
			"componentType":5126,
			"count":52,
			"max":[
				0.03360656648874283,
				1.4808824062347412,
				0.01918191835284233
			],
			"min":[
				0.022368691861629486,
				1.4760221242904663,
				0.015901736915111542
			],
			"type":"VEC3"
		},
		{
			"bufferView":38,
			"componentType":5126,
			"count":52,
			"type":"VEC3"
		},
		{
			"bufferView":39,
			"componentType":5126,
			"count":52,
			"type":"VEC2"
		},
		{
			"bufferView":40,
			"componentType":5121,
			"count":52,
			"type":"VEC4"
		},
		{
			"bufferView":41,
			"componentType":5126,
			"count":52,
			"type":"VEC4"
		},
		{
			"bufferView":42,
			"componentType":5123,
			"count":320,
			"normalized":true,
			"type":"VEC4"
		},
		{
			"bufferView":43,
			"componentType":5126,
			"count":320,
			"max":[
				0.043229591101408005,
				1.489973545074463,
				0.01905052922666073
			],
			"min":[
				0.021116962656378746,
				1.4649643898010254,
				0.015804216265678406
			],
			"type":"VEC3"
		},
		{
			"bufferView":44,
			"componentType":5126,
			"count":320,
			"type":"VEC3"
		},
		{
			"bufferView":45,
			"componentType":5126,
			"count":320,
			"type":"VEC2"
		},
		{
			"bufferView":46,
			"componentType":5121,
			"count":320,
			"type":"VEC4"
		},
		{
			"bufferView":47,
			"componentType":5126,
			"count":320,
			"type":"VEC4"
		},
		{
			"bufferView":48,
			"componentType":5123,
			"count":192,
			"normalized":true,
			"type":"VEC4"
		},
		{
			"bufferView":49,
			"componentType":5126,
			"count":192,
			"max":[
				0.041243523359298706,
				1.487724781036377,
				0.01905052922666073
			],
			"min":[
				0.02310306392610073,
				1.4671951532363892,
				0.01842721365392208
			],
			"type":"VEC3"
		},
		{
			"bufferView":50,
			"componentType":5126,
			"count":192,
			"type":"VEC3"
		},
		{
			"bufferView":51,
			"componentType":5126,
			"count":192,
			"type":"VEC2"
		},
		{
			"bufferView":52,
			"componentType":5121,
			"count":192,
			"type":"VEC4"
		},
		{
			"bufferView":53,
			"componentType":5126,
			"count":192,
			"type":"VEC4"
		},
		{
			"bufferView":54,
			"componentType":5126,
			"count":28832,
			"max":[
				0.09758664667606354,
				1.6239274740219116,
				0.021864622831344604
			],
			"min":[
				-0.09910792112350464,
				1.3937894105911255,
				-0.2843766510486603
			],
			"type":"VEC3"
		},
		{
			"bufferView":55,
			"componentType":5126,
			"count":28832,
			"type":"VEC3"
		},
		{
			"bufferView":56,
			"componentType":5126,
			"count":28832,
			"type":"VEC2"
		},
		{
			"bufferView":57,
			"componentType":5121,
			"count":28832,
			"type":"VEC4"
		},
		{
			"bufferView":58,
			"componentType":5126,
			"count":28832,
			"type":"VEC4"
		},
		{
			"bufferView":59,
			"componentType":5123,
			"count":165888,
			"type":"SCALAR"
		},
		{
			"bufferView":60,
			"componentType":5126,
			"count":4505,
			"max":[
				0.08249048888683319,
				1.6049656867980957,
				0.06761211156845093
			],
			"min":[
				-0.08404500782489777,
				1.4278628826141357,
				-0.023838162422180176
			],
			"type":"VEC3"
		},
		{
			"bufferView":61,
			"componentType":5126,
			"count":4505,
			"type":"VEC3"
		},
		{
			"bufferView":62,
			"componentType":5126,
			"count":4505,
			"type":"VEC2"
		},
		{
			"bufferView":63,
			"componentType":5121,
			"count":4505,
			"type":"VEC4"
		},
		{
			"bufferView":64,
			"componentType":5126,
			"count":4505,
			"type":"VEC4"
		},
		{
			"bufferView":65,
			"componentType":5123,
			"count":25920,
			"type":"SCALAR"
		},
		{
			"bufferView":66,
			"componentType":5126,
			"count":684,
			"max":[
				0.25715047121047974,
				0.20379015803337097,
				0.09508166462182999
			],
			"min":[
				-0.2571505010128021,
				0.04335150122642517,
				-0.15234620869159698
			],
			"type":"VEC3"
		},
		{
			"bufferView":67,
			"componentType":5126,
			"count":684,
			"type":"VEC3"
		},
		{
			"bufferView":68,
			"componentType":5126,
			"count":684,
			"type":"VEC2"
		},
		{
			"bufferView":69,
			"componentType":5121,
			"count":684,
			"type":"VEC4"
		},
		{
			"bufferView":70,
			"componentType":5126,
			"count":684,
			"type":"VEC4"
		},
		{
			"bufferView":71,
			"componentType":5123,
			"count":3120,
			"type":"SCALAR"
		},
		{
			"bufferView":72,
			"componentType":5126,
			"count":874,
			"max":[
				0.26317742466926575,
				0.07030083239078522,
				0.13427917659282684
			],
			"min":[
				-0.26317745447158813,
				-0.006944846827536821,
				-0.16545338928699493
			],
			"type":"VEC3"
		},
		{
			"bufferView":73,
			"componentType":5126,
			"count":874,
			"type":"VEC3"
		},
		{
			"bufferView":74,
			"componentType":5126,
			"count":874,
			"type":"VEC2"
		},
		{
			"bufferView":75,
			"componentType":5121,
			"count":874,
			"type":"VEC4"
		},
		{
			"bufferView":76,
			"componentType":5126,
			"count":874,
			"type":"VEC4"
		},
		{
			"bufferView":77,
			"componentType":5123,
			"count":4056,
			"type":"SCALAR"
		},
		{
			"bufferView":78,
			"componentType":5126,
			"count":176,
			"max":[
				0.2580324709415436,
				0.07186567783355713,
				0.12638424336910248
			],
			"min":[
				-0.25803250074386597,
				0.04122041165828705,
				-0.15325137972831726
			],
			"type":"VEC3"
		},
		{
			"bufferView":79,
			"componentType":5126,
			"count":176,
			"type":"VEC3"
		},
		{
			"bufferView":80,
			"componentType":5126,
			"count":176,
			"type":"VEC2"
		},
		{
			"bufferView":81,
			"componentType":5121,
			"count":176,
			"type":"VEC4"
		},
		{
			"bufferView":82,
			"componentType":5126,
			"count":176,
			"type":"VEC4"
		},
		{
			"bufferView":83,
			"componentType":5123,
			"count":480,
			"type":"SCALAR"
		},
		{
			"bufferView":84,
			"componentType":5126,
			"count":2520,
			"max":[
				0.2290080338716507,
				0.151316300034523,
				0.07318662852048874
			],
			"min":[
				-0.22900806367397308,
				0.05887456610798836,
				-0.038796547800302505
			],
			"type":"VEC3"
		},
		{
			"bufferView":85,
			"componentType":5126,
			"count":2520,
			"type":"VEC3"
		},
		{
			"bufferView":86,
			"componentType":5126,
			"count":2520,
			"type":"VEC2"
		},
		{
			"bufferView":87,
			"componentType":5121,
			"count":2520,
			"type":"VEC4"
		},
		{
			"bufferView":88,
			"componentType":5126,
			"count":2520,
			"type":"VEC4"
		},
		{
			"bufferView":89,
			"componentType":5123,
			"count":11472,
			"type":"SCALAR"
		},
		{
			"bufferView":90,
			"componentType":5126,
			"count":3224,
			"max":[
				0.2480574995279312,
				0.15201489627361298,
				0.07481779903173447
			],
			"min":[
				-0.2480575442314148,
				0.05408950522542,
				-0.06504206359386444
			],
			"type":"VEC3"
		},
		{
			"bufferView":91,
			"componentType":5126,
			"count":3224,
			"type":"VEC3"
		},
		{
			"bufferView":92,
			"componentType":5126,
			"count":3224,
			"type":"VEC2"
		},
		{
			"bufferView":93,
			"componentType":5121,
			"count":3224,
			"type":"VEC4"
		},
		{
			"bufferView":94,
			"componentType":5126,
			"count":3224,
			"type":"VEC4"
		},
		{
			"bufferView":95,
			"componentType":5123,
			"count":15552,
			"type":"SCALAR"
		},
		{
			"bufferView":96,
			"componentType":5123,
			"count":601,
			"normalized":true,
			"type":"VEC4"
		},
		{
			"bufferView":97,
			"componentType":5126,
			"count":601,
			"max":[
				0.1534970998764038,
				1.041908621788025,
				0.03735017403960228
			],
			"min":[
				-0.1534970998764038,
				0.8195831179618835,
				-0.13826292753219604
			],
			"type":"VEC3"
		},
		{
			"bufferView":98,
			"componentType":5126,
			"count":601,
			"type":"VEC3"
		},
		{
			"bufferView":99,
			"componentType":5126,
			"count":601,
			"type":"VEC2"
		},
		{
			"bufferView":100,
			"componentType":5121,
			"count":601,
			"type":"VEC4"
		},
		{
			"bufferView":101,
			"componentType":5126,
			"count":601,
			"type":"VEC4"
		},
		{
			"bufferView":102,
			"componentType":5123,
			"count":2928,
			"type":"SCALAR"
		}
	],
	"bufferViews":[
		{
			"buffer":0,
			"byteLength":102488,
			"byteOffset":0,
			"target":34962
		},
		{
			"buffer":0,
			"byteLength":153732,
			"byteOffset":102488,
			"target":34962
		},
		{
			"buffer":0,
			"byteLength":153732,
			"byteOffset":256220,
			"target":34962
		},
		{
			"buffer":0,
			"byteLength":102488,
			"byteOffset":409952,
			"target":34962
		},
		{
			"buffer":0,
			"byteLength":51244,
			"byteOffset":512440,
			"target":34962
		},
		{
			"buffer":0,
			"byteLength":204976,
			"byteOffset":563684,
			"target":34962
		},
		{
			"buffer":0,
			"byteLength":144216,
			"byteOffset":768660,
			"target":34963
		},
		{
			"buffer":0,
			"byteLength":1520,
			"byteOffset":912876,
			"target":34962
		},
		{
			"buffer":0,
			"byteLength":2280,
			"byteOffset":914396,
			"target":34962
		},
		{
			"buffer":0,
			"byteLength":2280,
			"byteOffset":916676,
			"target":34962
		},
		{
			"buffer":0,
			"byteLength":1520,
			"byteOffset":918956,
			"target":34962
		},
		{
			"buffer":0,
			"byteLength":760,
			"byteOffset":920476,
			"target":34962
		},
		{
			"buffer":0,
			"byteLength":3040,
			"byteOffset":921236,
			"target":34962
		},
		{
			"buffer":0,
			"byteLength":2016,
			"byteOffset":924276,
			"target":34963
		},
		{
			"buffer":0,
			"byteLength":10944,
			"byteOffset":926292
		},
		{
			"buffer":0,
			"byteLength":416,
			"byteOffset":937236,
			"target":34962
		},
		{
			"buffer":0,
			"byteLength":624,
			"byteOffset":937652,
			"target":34962
		},
		{
			"buffer":0,
			"byteLength":624,
			"byteOffset":938276,
			"target":34962
		},
		{
			"buffer":0,
			"byteLength":416,
			"byteOffset":938900,
			"target":34962
		},
		{
			"buffer":0,
			"byteLength":208,
			"byteOffset":939316,
			"target":34962
		},
		{
			"buffer":0,
			"byteLength":832,
			"byteOffset":939524,
			"target":34962
		},
		{
			"buffer":0,
			"byteLength":288,
			"byteOffset":940356,
			"target":34963
		},
		{
			"buffer":0,
			"byteLength":2560,
			"byteOffset":940644,
			"target":34962
		},
		{
			"buffer":0,
			"byteLength":3840,
			"byteOffset":943204,
			"target":34962
		},
		{
			"buffer":0,
			"byteLength":3840,
			"byteOffset":947044,
			"target":34962
		},
		{
			"buffer":0,
			"byteLength":2560,
			"byteOffset":950884,
			"target":34962
		},
		{
			"buffer":0,
			"byteLength":1280,
			"byteOffset":953444,
			"target":34962
		},
		{
			"buffer":0,
			"byteLength":5120,
			"byteOffset":954724,
			"target":34962
		},
		{
			"buffer":0,
			"byteLength":2304,
			"byteOffset":959844,
			"target":34963
		},
		{
			"buffer":0,
			"byteLength":1536,
			"byteOffset":962148,
			"target":34962
		},
		{
			"buffer":0,
			"byteLength":2304,
			"byteOffset":963684,
			"target":34962
		},
		{
			"buffer":0,
			"byteLength":2304,
			"byteOffset":965988,
			"target":34962
		},
		{
			"buffer":0,
			"byteLength":1536,
			"byteOffset":968292,
			"target":34962
		},
		{
			"buffer":0,
			"byteLength":768,
			"byteOffset":969828,
			"target":34962
		},
		{
			"buffer":0,
			"byteLength":3072,
			"byteOffset":970596,
			"target":34962
		},
		{
			"buffer":0,
			"byteLength":1152,
			"byteOffset":973668,
			"target":34963
		},
		{
			"buffer":0,
			"byteLength":416,
			"byteOffset":974820,
			"target":34962
		},
		{
			"buffer":0,
			"byteLength":624,
			"byteOffset":975236,
			"target":34962
		},
		{
			"buffer":0,
			"byteLength":624,
			"byteOffset":975860,
			"target":34962
		},
		{
			"buffer":0,
			"byteLength":416,
			"byteOffset":976484,
			"target":34962
		},
		{
			"buffer":0,
			"byteLength":208,
			"byteOffset":976900,
			"target":34962
		},
		{
			"buffer":0,
			"byteLength":832,
			"byteOffset":977108,
			"target":34962
		},
		{
			"buffer":0,
			"byteLength":2560,
			"byteOffset":977940,
			"target":34962
		},
		{
			"buffer":0,
			"byteLength":3840,
			"byteOffset":980500,
			"target":34962
		},
		{
			"buffer":0,
			"byteLength":3840,
			"byteOffset":984340,
			"target":34962
		},
		{
			"buffer":0,
			"byteLength":2560,
			"byteOffset":988180,
			"target":34962
		},
		{
			"buffer":0,
			"byteLength":1280,
			"byteOffset":990740,
			"target":34962
		},
		{
			"buffer":0,
			"byteLength":5120,
			"byteOffset":992020,
			"target":34962
		},
		{
			"buffer":0,
			"byteLength":1536,
			"byteOffset":997140,
			"target":34962
		},
		{
			"buffer":0,
			"byteLength":2304,
			"byteOffset":998676,
			"target":34962
		},
		{
			"buffer":0,
			"byteLength":2304,
			"byteOffset":1000980,
			"target":34962
		},
		{
			"buffer":0,
			"byteLength":1536,
			"byteOffset":1003284,
			"target":34962
		},
		{
			"buffer":0,
			"byteLength":768,
			"byteOffset":1004820,
			"target":34962
		},
		{
			"buffer":0,
			"byteLength":3072,
			"byteOffset":1005588,
			"target":34962
		},
		{
			"buffer":0,
			"byteLength":345984,
			"byteOffset":1008660,
			"target":34962
		},
		{
			"buffer":0,
			"byteLength":345984,
			"byteOffset":1354644,
			"target":34962
		},
		{
			"buffer":0,
			"byteLength":230656,
			"byteOffset":1700628,
			"target":34962
		},
		{
			"buffer":0,
			"byteLength":115328,
			"byteOffset":1931284,
			"target":34962
		},
		{
			"buffer":0,
			"byteLength":461312,
			"byteOffset":2046612,
			"target":34962
		},
		{
			"buffer":0,
			"byteLength":331776,
			"byteOffset":2507924,
			"target":34963
		},
		{
			"buffer":0,
			"byteLength":54060,
			"byteOffset":2839700,
			"target":34962
		},
		{
			"buffer":0,
			"byteLength":54060,
			"byteOffset":2893760,
			"target":34962
		},
		{
			"buffer":0,
			"byteLength":36040,
			"byteOffset":2947820,
			"target":34962
		},
		{
			"buffer":0,
			"byteLength":18020,
			"byteOffset":2983860,
			"target":34962
		},
		{
			"buffer":0,
			"byteLength":72080,
			"byteOffset":3001880,
			"target":34962
		},
		{
			"buffer":0,
			"byteLength":51840,
			"byteOffset":3073960,
			"target":34963
		},
		{
			"buffer":0,
			"byteLength":8208,
			"byteOffset":3125800,
			"target":34962
		},
		{
			"buffer":0,
			"byteLength":8208,
			"byteOffset":3134008,
			"target":34962
		},
		{
			"buffer":0,
			"byteLength":5472,
			"byteOffset":3142216,
			"target":34962
		},
		{
			"buffer":0,
			"byteLength":2736,
			"byteOffset":3147688,
			"target":34962
		},
		{
			"buffer":0,
			"byteLength":10944,
			"byteOffset":3150424,
			"target":34962
		},
		{
			"buffer":0,
			"byteLength":6240,
			"byteOffset":3161368,
			"target":34963
		},
		{
			"buffer":0,
			"byteLength":10488,
			"byteOffset":3167608,
			"target":34962
		},
		{
			"buffer":0,
			"byteLength":10488,
			"byteOffset":3178096,
			"target":34962
		},
		{
			"buffer":0,
			"byteLength":6992,
			"byteOffset":3188584,
			"target":34962
		},
		{
			"buffer":0,
			"byteLength":3496,
			"byteOffset":3195576,
			"target":34962
		},
		{
			"buffer":0,
			"byteLength":13984,
			"byteOffset":3199072,
			"target":34962
		},
		{
			"buffer":0,
			"byteLength":8112,
			"byteOffset":3213056,
			"target":34963
		},
		{
			"buffer":0,
			"byteLength":2112,
			"byteOffset":3221168,
			"target":34962
		},
		{
			"buffer":0,
			"byteLength":2112,
			"byteOffset":3223280,
			"target":34962
		},
		{
			"buffer":0,
			"byteLength":1408,
			"byteOffset":3225392,
			"target":34962
		},
		{
			"buffer":0,
			"byteLength":704,
			"byteOffset":3226800,
			"target":34962
		},
		{
			"buffer":0,
			"byteLength":2816,
			"byteOffset":3227504,
			"target":34962
		},
		{
			"buffer":0,
			"byteLength":960,
			"byteOffset":3230320,
			"target":34963
		},
		{
			"buffer":0,
			"byteLength":30240,
			"byteOffset":3231280,
			"target":34962
		},
		{
			"buffer":0,
			"byteLength":30240,
			"byteOffset":3261520,
			"target":34962
		},
		{
			"buffer":0,
			"byteLength":20160,
			"byteOffset":3291760,
			"target":34962
		},
		{
			"buffer":0,
			"byteLength":10080,
			"byteOffset":3311920,
			"target":34962
		},
		{
			"buffer":0,
			"byteLength":40320,
			"byteOffset":3322000,
			"target":34962
		},
		{
			"buffer":0,
			"byteLength":22944,
			"byteOffset":3362320,
			"target":34963
		},
		{
			"buffer":0,
			"byteLength":38688,
			"byteOffset":3385264,
			"target":34962
		},
		{
			"buffer":0,
			"byteLength":38688,
			"byteOffset":3423952,
			"target":34962
		},
		{
			"buffer":0,
			"byteLength":25792,
			"byteOffset":3462640,
			"target":34962
		},
		{
			"buffer":0,
			"byteLength":12896,
			"byteOffset":3488432,
			"target":34962
		},
		{
			"buffer":0,
			"byteLength":51584,
			"byteOffset":3501328,
			"target":34962
		},
		{
			"buffer":0,
			"byteLength":31104,
			"byteOffset":3552912,
			"target":34963
		},
		{
			"buffer":0,
			"byteLength":4808,
			"byteOffset":3584016,
			"target":34962
		},
		{
			"buffer":0,
			"byteLength":7212,
			"byteOffset":3588824,
			"target":34962
		},
		{
			"buffer":0,
			"byteLength":7212,
			"byteOffset":3596036,
			"target":34962
		},
		{
			"buffer":0,
			"byteLength":4808,
			"byteOffset":3603248,
			"target":34962
		},
		{
			"buffer":0,
			"byteLength":2404,
			"byteOffset":3608056,
			"target":34962
		},
		{
			"buffer":0,
			"byteLength":9616,
			"byteOffset":3610460,
			"target":34962
		},
		{
			"buffer":0,
			"byteLength":5856,
			"byteOffset":3620076,
			"target":34963
		}
	],
	"samplers":[
		{
			"magFilter":9729,
			"minFilter":9987
		}
	],
	"buffers":[
		{
			"byteLength":3625932,
			"uri":"base-human-female.bin"
		}
	]
}
