{
	"asset":{
		"generator":"Khronos glTF Blender I/O v3.6.27",
		"version":"2.0"
	},
	"scene":0,
	"scenes":[
		{
			"name":"Scene",
			"nodes":[
				0
			]
		}
	],
	"nodes":[
		{
			"mesh":0,
			"name":"Couch"
		}
	],
	"materials":[
		{
			"name":"Archisketch_122724_Frame_Yellow",
			"normalTexture":{
				"index":0
			},
			"pbrMetallicRoughness":{
				"baseColorTexture":{
					"index":1
				},
				"metallicRoughnessTexture":{
					"index":2
				}
			}
		}
	],
	"meshes":[
		{
			"name":"Couch",
			"primitives":[
				{
					"attributes":{
						"COLOR_0":0,
						"POSITION":1,
						"NORMAL":2,
						"TEXCOORD_0":3
					},
					"indices":4,
					"material":0
				}
			]
		}
	],
	"textures":[
		{
			"sampler":0,
			"source":0
		},
		{
			"sampler":0,
			"source":1
		},
		{
			"sampler":0,
			"source":2
		}
	],
	"images":[
		{
			"mimeType":"image/png",
			"name":"archisketch_122724_frame_yellow_normal",
			"uri":"../textures/archisketch_122724_frame_yellow_normal.png"
		},
		{
			"mimeType":"image/png",
			"name":"archisketch_122724_frame_yellow_basecolor",
			"uri":"../textures/archisketch_122724_frame_yellow_basecolor.png"
		},
		{
			"mimeType":"image/png",
			"name":"archisketch_122724_frame_yellow_occlusionroughnessmetallic",
			"uri":"../textures/archisketch_122724_frame_yellow_occlusionroughnessmetallic.png"
		}
	],
	"accessors":[
		{
			"bufferView":0,
			"componentType":5123,
			"count":9285,
			"normalized":true,
			"type":"VEC4"
		},
		{
			"bufferView":1,
			"componentType":5126,
			"count":9285,
			"max":[
				0.5208197832107544,
				0.8453625440597534,
				0.4746153652667999
			],
			"min":[
				-0.5208197832107544,
				0,
				-0.4746153652667999
			],
			"type":"VEC3"
		},
		{
			"bufferView":2,
			"componentType":5126,
			"count":9285,
			"type":"VEC3"
		},
		{
			"bufferView":3,
			"componentType":5126,
			"count":9285,
			"type":"VEC2"
		},
		{
			"bufferView":4,
			"componentType":5123,
			"count":37824,
			"type":"SCALAR"
		}
	],
	"bufferViews":[
		{
			"buffer":0,
			"byteLength":74280,
			"byteOffset":0,
			"target":34962
		},
		{
			"buffer":0,
			"byteLength":111420,
			"byteOffset":74280,
			"target":34962
		},
		{
			"buffer":0,
			"byteLength":111420,
			"byteOffset":185700,
			"target":34962
		},
		{
			"buffer":0,
			"byteLength":74280,
			"byteOffset":297120,
			"target":34962
		},
		{
			"buffer":0,
			"byteLength":75648,
			"byteOffset":371400,
			"target":34963
		}
	],
	"samplers":[
		{
			"magFilter":9729,
			"minFilter":9987
		}
	],
	"buffers":[
		{
			"byteLength":447048,
			"uri":"couch.bin"
		}
	]
}
