{
	"asset":{
		"generator":"Khronos glTF Blender I/O v3.6.27",
		"version":"2.0"
	},
	"scene":0,
	"scenes":[
		{
			"name":"Scene",
			"nodes":[
				0
			]
		}
	],
	"nodes":[
		{
			"mesh":0,
			"name":"DeskChair"
		}
	],
	"materials":[
		{
			"name":"_Chair1_101___Default",
			"normalTexture":{
				"index":0
			},
			"pbrMetallicRoughness":{
				"baseColorTexture":{
					"index":1
				},
				"metallicRoughnessTexture":{
					"index":2
				}
			}
		}
	],
	"meshes":[
		{
			"name":"DeskChair",
			"primitives":[
				{
					"attributes":{
						"COLOR_0":0,
						"POSITION":1,
						"NORMAL":2,
						"TEXCOORD_0":3
					},
					"indices":4,
					"material":0
				}
			]
		}
	],
	"textures":[
		{
			"sampler":0,
			"source":0
		},
		{
			"sampler":0,
			"source":1
		},
		{
			"sampler":0,
			"source":2
		}
	],
	"images":[
		{
			"mimeType":"image/png",
			"name":"archisketch_285734_frame_black_normal",
			"uri":"../textures/archisketch_285734_frame_black_normal.png"
		},
		{
			"mimeType":"image/png",
			"name":"archisketch_285734_frame_black_basecolor",
			"uri":"../textures/archisketch_285734_frame_black_basecolor.png"
		},
		{
			"mimeType":"image/png",
			"name":"archisketch_285734_frame_black_occlusionroughnessmetallic",
			"uri":"../textures/archisketch_285734_frame_black_occlusionroughnessmetallic.png"
		}
	],
	"accessors":[
		{
			"bufferView":0,
			"componentType":5123,
			"count":26100,
			"normalized":true,
			"type":"VEC4"
		},
		{
			"bufferView":1,
			"componentType":5126,
			"count":26100,
			"max":[
				0.30823463201522827,
				1.2001636028289795,
				0.33275049924850464
			],
			"min":[
				-0.30823463201522827,
				0,
				-0.33275049924850464
			],
			"type":"VEC3"
		},
		{
			"bufferView":2,
			"componentType":5126,
			"count":26100,
			"type":"VEC3"
		},
		{
			"bufferView":3,
			"componentType":5126,
			"count":26100,
			"type":"VEC2"
		},
		{
			"bufferView":4,
			"componentType":5123,
			"count":127638,
			"type":"SCALAR"
		}
	],
	"bufferViews":[
		{
			"buffer":0,
			"byteLength":208800,
			"byteOffset":0,
			"target":34962
		},
		{
			"buffer":0,
			"byteLength":313200,
			"byteOffset":208800,
			"target":34962
		},
		{
			"buffer":0,
			"byteLength":313200,
			"byteOffset":522000,
			"target":34962
		},
		{
			"buffer":0,
			"byteLength":208800,
			"byteOffset":835200,
			"target":34962
		},
		{
			"buffer":0,
			"byteLength":255276,
			"byteOffset":1044000,
			"target":34963
		}
	],
	"samplers":[
		{
			"magFilter":9729,
			"minFilter":9987
		}
	],
	"buffers":[
		{
			"byteLength":1299276,
			"uri":"desk-chair.bin"
		}
	]
}
