{
	"asset":{
		"generator":"Khronos glTF Blender I/O v3.6.27",
		"version":"2.0"
	},
	"scene":0,
	"scenes":[
		{
			"name":"Scene",
			"nodes":[
				0
			]
		}
	],
	"nodes":[
		{
			"mesh":0,
			"name":"FileCabinet"
		}
	],
	"materials":[
		{
			"name":"Archisketch_13135_Frame_Silver",
			"normalTexture":{
				"index":0
			},
			"pbrMetallicRoughness":{
				"baseColorTexture":{
					"index":1
				},
				"metallicRoughnessTexture":{
					"index":2
				}
			}
		}
	],
	"meshes":[
		{
			"name":"FileCabinet",
			"primitives":[
				{
					"attributes":{
						"COLOR_0":0,
						"POSITION":1,
						"NORMAL":2,
						"TEXCOORD_0":3
					},
					"indices":4,
					"material":0
				}
			]
		}
	],
	"textures":[
		{
			"sampler":0,
			"source":0
		},
		{
			"sampler":0,
			"source":1
		},
		{
			"sampler":0,
			"source":2
		}
	],
	"images":[
		{
			"mimeType":"image/png",
			"name":"archisketch_13135_frame_silver_normal",
			"uri":"../textures/archisketch_13135_frame_silver_normal.png"
		},
		{
			"mimeType":"image/png",
			"name":"archisketch_13135_frame_silver_basecolor",
			"uri":"../textures/archisketch_13135_frame_silver_basecolor.png"
		},
		{
			"mimeType":"image/png",
			"name":"archisketch_13135_frame_silver_occlusionroughnessmetallic",
			"uri":"../textures/archisketch_13135_frame_silver_occlusionroughnessmetallic.png"
		}
	],
	"accessors":[
		{
			"bufferView":0,
			"componentType":5123,
			"count":1381,
			"normalized":true,
			"type":"VEC4"
		},
		{
			"bufferView":1,
			"componentType":5126,
			"count":1381,
			"max":[
				0.17499776184558868,
				0.5099859237670898,
				0.18015122413635254
			],
			"min":[
				-0.17499776184558868,
				0,
				-0.18015122413635254
			],
			"type":"VEC3"
		},
		{
			"bufferView":2,
			"componentType":5126,
			"count":1381,
			"type":"VEC3"
		},
		{
			"bufferView":3,
			"componentType":5126,
			"count":1381,
			"type":"VEC2"
		},
		{
			"bufferView":4,
			"componentType":5123,
			"count":5706,
			"type":"SCALAR"
		}
	],
	"bufferViews":[
		{
			"buffer":0,
			"byteLength":11048,
			"byteOffset":0,
			"target":34962
		},
		{
			"buffer":0,
			"byteLength":16572,
			"byteOffset":11048,
			"target":34962
		},
		{
			"buffer":0,
			"byteLength":16572,
			"byteOffset":27620,
			"target":34962
		},
		{
			"buffer":0,
			"byteLength":11048,
			"byteOffset":44192,
			"target":34962
		},
		{
			"buffer":0,
			"byteLength":11412,
			"byteOffset":55240,
			"target":34963
		}
	],
	"samplers":[
		{
			"magFilter":9729,
			"minFilter":9987
		}
	],
	"buffers":[
		{
			"byteLength":66652,
			"uri":"file-cabinet.bin"
		}
	]
}
